<svg width="30" height="30" viewBox="0 0 30 30" fill="none" xmlns="http://www.w3.org/2000/svg">
<path d="M10 25.0001V27.4156C10 27.7608 9.72017 28.0406 9.375 28.0406C9.22879 28.0406 9.08721 27.9893 8.97489 27.8957L3.82616 23.6052C3.56099 23.3842 3.52516 22.9901 3.74614 22.725C3.86489 22.5825 4.0408 22.5001 4.22629 22.5001H22.5C23.8808 22.5001 25 21.3807 25 20.0001V10.0001H27.5V20.0001C27.5 22.7615 25.2614 25.0001 22.5 25.0001H10ZM20 5.00006V2.58447C20 2.2393 20.2799 1.95947 20.625 1.95947C20.7712 1.95947 20.9128 2.01074 21.0251 2.10434L26.1739 6.39494C26.439 6.61592 26.4749 7.01002 26.2539 7.2752C26.1351 7.41768 25.9592 7.50007 25.7738 7.50007L7.5 7.50006C6.11929 7.50006 5 8.61935 5 10.0001V20.0001H2.5V10.0001C2.5 7.23864 4.73857 5.00006 7.5 5.00006H20Z" fill="black"/>
</svg>
