<svg width="30" height="30" viewBox="0 0 30 30" fill="none" xmlns="http://www.w3.org/2000/svg">
<path d="M3.85872 11.25H26.1418C26.8321 11.25 27.3918 11.8097 27.3918 12.5C27.3918 12.5346 27.3903 12.5693 27.3874 12.6038L26.3458 25.1038C26.2918 25.7516 25.7501 26.25 25.1 26.25H4.90038C4.25027 26.25 3.70869 25.7516 3.6547 25.1038L2.61303 12.6038C2.5557 11.9158 3.06694 11.3117 3.7549 11.2543C3.78944 11.2514 3.82407 11.25 3.85872 11.25ZM6.05055 23.75H23.9499L24.7833 13.75H5.21722L6.05055 23.75ZM16.768 6.25H25.0003C25.6906 6.25 26.2503 6.80965 26.2503 7.5V8.75H3.75022V5C3.75022 4.30965 4.30987 3.75 5.00022 3.75H14.268L16.768 6.25Z" fill="black"/>
</svg>
