<svg width="30" height="30" viewBox="0 0 30 30" fill="none" xmlns="http://www.w3.org/2000/svg">
<path d="M15 2.50015C15.6904 2.50015 16.25 3.05979 16.25 3.75015C16.2499 4.44047 15.6903 5.00015 15 5.00015C9.47715 5.00015 5 9.4773 5 15.0002C5.00005 20.5229 9.47717 25.0002 15 25.0002C20.5228 25.0002 24.9999 20.5229 25 15.0002C25 14.3098 25.5596 13.7502 26.25 13.7502C26.9404 13.7502 27.5 14.3098 27.5 15.0002C27.4999 21.9037 21.9035 27.5002 15 27.5002C8.09646 27.5002 2.50005 21.9037 2.5 15.0002C2.5 8.09659 8.09644 2.50015 15 2.50015ZM15 7.50015C15.6904 7.50015 16.25 8.05979 16.25 8.75015C16.2499 9.44047 15.6903 10.0002 15 10.0002C12.2386 10.0002 9.99999 12.2387 9.99999 15.0002C10.0001 17.7615 12.2386 20.0002 15 20.0002C17.7614 20.0002 19.9999 17.7615 20 15.0002C20 14.3098 20.5596 13.7502 21.25 13.7502C21.9404 13.7502 22.5 14.3098 22.5 15.0002C22.4999 19.1423 19.1421 22.5002 15 22.5002C10.8579 22.5002 7.50005 19.1423 7.5 15.0002C7.5 10.858 10.8579 7.50015 15 7.50015ZM22.0703 2.62588C22.5585 2.13773 23.3509 2.13773 23.8391 2.62588C24.3267 3.11398 24.3269 3.9054 23.8391 4.39345L22.9541 5.27603L22.9552 5.27725C22.4671 5.7654 22.4671 6.55667 22.9552 7.04483C23.4435 7.53282 24.2347 7.53293 24.7229 7.04483L25.6066 6.16104C26.0949 5.67315 26.8861 5.67299 27.3743 6.16104C27.8624 6.6491 27.8621 7.44044 27.3743 7.92862L24.7229 10.5812C24.4886 10.8155 24.1704 10.9461 23.8391 10.9462H20.8215L15.8837 15.8839C15.3956 16.3719 14.6042 16.3719 14.1163 15.8839C13.6281 15.3958 13.6283 14.6045 14.1163 14.1164L19.0527 9.17984V6.16104C19.0527 5.82962 19.1846 5.51162 19.4189 5.27725L22.0703 2.62588Z" fill="black"/>
</svg>
