<svg width="30" height="30" viewBox="0 0 30 30" fill="none" xmlns="http://www.w3.org/2000/svg">
<path d="M8.75 6.25C8.75 3.48857 10.9886 1.25 13.75 1.25C16.5114 1.25 18.75 3.48857 18.75 6.25H25C25.6904 6.25 26.25 6.80965 26.25 7.5V12.7134C26.25 13.1191 26.053 13.4996 25.7218 13.734C25.3904 13.9682 24.966 14.0271 24.5835 13.8919C24.3244 13.8004 24.0444 13.75 23.75 13.75C22.3692 13.75 21.25 14.8693 21.25 16.25C21.25 17.6308 22.3692 18.75 23.75 18.75C24.0444 18.75 24.3244 18.6996 24.5835 18.6081C24.966 18.4729 25.3904 18.5317 25.7218 18.766C26.053 19.0004 26.25 19.3809 26.25 19.7866V25C26.25 25.6904 25.6904 26.25 25 26.25H5C4.30965 26.25 3.75 25.6904 3.75 25V7.5C3.75 6.80965 4.30965 6.25 5 6.25H8.75ZM13.75 3.75C12.3693 3.75 11.25 4.86929 11.25 6.25C11.25 6.54443 11.3004 6.8244 11.3919 7.08344C11.5272 7.46602 11.4683 7.89044 11.234 8.22174C10.9997 8.55304 10.6191 8.75 10.2134 8.75H6.25V23.75H23.75V21.25C20.9886 21.25 18.75 19.0114 18.75 16.25C18.75 13.4886 20.9886 11.25 23.75 11.25V8.75H17.2866C16.8809 8.75 16.5004 8.55304 16.266 8.22174C16.0318 7.89044 15.9729 7.46602 16.1081 7.08344C16.1996 6.8244 16.25 6.54444 16.25 6.25C16.25 4.86929 15.1307 3.75 13.75 3.75Z" fill="black"/>
</svg>
