<svg width="360" height="142" viewBox="0 0 360 142" fill="none" xmlns="http://www.w3.org/2000/svg">
<line x1="11.5" y1="59.5" x2="214.5" y2="59.5" stroke="black" stroke-opacity="0.34" stroke-linecap="round" stroke-dasharray="6 6"/>
<g filter="url(#filter0_d_34_1773)">
<rect x="159" width="191" height="119" rx="10" fill="#262D3F"/>
<rect x="159.5" y="0.5" width="190" height="118" rx="9.5" stroke="#A0A0A0" stroke-opacity="0.36"/>
<path d="M177.63 25V18H179.08V20.82H182.3V18H183.75V25H182.3V22.13H179.08V25H177.63ZM185.023 25V18H186.473V25H185.023ZM189.197 23.71H190.417C190.731 23.71 191.021 23.6567 191.287 23.55C191.561 23.4367 191.797 23.28 191.997 23.08C192.204 22.88 192.361 22.6467 192.467 22.38C192.581 22.1133 192.637 21.8233 192.637 21.51C192.637 21.1967 192.581 20.9067 192.467 20.64C192.354 20.3667 192.197 20.13 191.997 19.93C191.797 19.73 191.561 19.5733 191.287 19.46C191.021 19.3467 190.731 19.29 190.417 19.29H189.197V23.71ZM187.747 25V18H190.437C190.964 18 191.451 18.09 191.897 18.27C192.344 18.4433 192.734 18.69 193.067 19.01C193.401 19.33 193.661 19.7033 193.847 20.13C194.041 20.5567 194.137 21.0167 194.137 21.51C194.137 22.01 194.044 22.47 193.857 22.89C193.671 23.31 193.407 23.68 193.067 24C192.734 24.3133 192.344 24.56 191.897 24.74C191.451 24.9133 190.964 25 190.437 25H187.747ZM196.58 23.71H197.8C198.113 23.71 198.403 23.6567 198.67 23.55C198.943 23.4367 199.18 23.28 199.38 23.08C199.587 22.88 199.743 22.6467 199.85 22.38C199.963 22.1133 200.02 21.8233 200.02 21.51C200.02 21.1967 199.963 20.9067 199.85 20.64C199.737 20.3667 199.58 20.13 199.38 19.93C199.18 19.73 198.943 19.5733 198.67 19.46C198.403 19.3467 198.113 19.29 197.8 19.29H196.58V23.71ZM195.13 25V18H197.82C198.347 18 198.833 18.09 199.28 18.27C199.727 18.4433 200.117 18.69 200.45 19.01C200.783 19.33 201.043 19.7033 201.23 20.13C201.423 20.5567 201.52 21.0167 201.52 21.51C201.52 22.01 201.427 22.47 201.24 22.89C201.053 23.31 200.79 23.68 200.45 24C200.117 24.3133 199.727 24.56 199.28 24.74C198.833 24.9133 198.347 25 197.82 25H195.13ZM202.513 25V18H207.893V19.26H203.963V20.86H206.553V22.08H203.963V23.74H207.933V25H202.513ZM208.958 25V18H210.338L213.818 22.52V18H215.178V25H213.898L210.328 20.32V25H208.958ZM218.46 25V18H221.75C222.223 18 222.637 18.08 222.99 18.24C223.343 18.4 223.62 18.6267 223.82 18.92C224.02 19.2067 224.12 19.54 224.12 19.92C224.12 20.2267 224.04 20.51 223.88 20.77C223.727 21.0233 223.517 21.23 223.25 21.39C223.59 21.55 223.86 21.7667 224.06 22.04C224.26 22.3133 224.36 22.6233 224.36 22.97C224.36 23.37 224.257 23.7233 224.05 24.03C223.85 24.3367 223.563 24.5767 223.19 24.75C222.823 24.9167 222.397 25 221.91 25H218.46ZM219.91 20.86H221.66C221.973 20.86 222.22 20.7867 222.4 20.64C222.587 20.4867 222.68 20.2833 222.68 20.03C222.68 19.7767 222.587 19.5767 222.4 19.43C222.22 19.2767 221.973 19.2 221.66 19.2H219.91V20.86ZM219.91 23.8H221.8C222.133 23.8 222.4 23.72 222.6 23.56C222.8 23.3933 222.9 23.1733 222.9 22.9C222.9 22.62 222.8 22.4 222.6 22.24C222.4 22.0733 222.133 21.99 221.8 21.99H219.91V23.8ZM224.567 25L227.447 18H229.117L231.967 25H230.397L229.687 23.16H226.797L226.077 25H224.567ZM227.247 22H229.247L228.247 19.42L227.247 22ZM235.208 25.1C234.641 25.1 234.088 24.9967 233.548 24.79C233.008 24.5767 232.528 24.2767 232.108 23.89L232.938 22.85C233.345 23.21 233.735 23.47 234.108 23.63C234.488 23.79 234.888 23.87 235.308 23.87C235.601 23.87 235.855 23.8367 236.068 23.77C236.281 23.6967 236.445 23.5933 236.558 23.46C236.678 23.3267 236.738 23.17 236.738 22.99C236.738 22.75 236.651 22.5667 236.478 22.44C236.305 22.3067 236.008 22.2033 235.588 22.13L234.198 21.89C233.605 21.79 233.151 21.58 232.838 21.26C232.531 20.94 232.378 20.5267 232.378 20.02C232.378 19.5867 232.488 19.21 232.708 18.89C232.935 18.57 233.251 18.3267 233.658 18.16C234.071 17.9867 234.561 17.9 235.128 17.9C235.641 17.9 236.151 17.9867 236.658 18.16C237.171 18.3333 237.625 18.5733 238.018 18.88L237.238 19.96C236.505 19.4 235.768 19.12 235.028 19.12C234.768 19.12 234.541 19.1533 234.348 19.22C234.155 19.2867 234.005 19.38 233.898 19.5C233.798 19.6133 233.748 19.75 233.748 19.91C233.748 20.1233 233.825 20.29 233.978 20.41C234.131 20.5233 234.388 20.61 234.748 20.67L236.068 20.89C236.768 21.0033 237.291 21.2267 237.638 21.56C237.985 21.8867 238.158 22.32 238.158 22.86C238.158 23.3133 238.038 23.71 237.798 24.05C237.558 24.3833 237.215 24.6433 236.768 24.83C236.328 25.01 235.808 25.1 235.208 25.1ZM239.017 25V18H244.397V19.26H240.467V20.86H243.057V22.08H240.467V23.74H244.437V25H239.017Z" fill="#C9C8F9"/>
<path d="M178.119 50V39.8182H181.748C182.537 39.8182 183.191 39.9541 183.712 40.2259C184.235 40.4976 184.626 40.8738 184.885 41.3544C185.143 41.8317 185.273 42.3835 185.273 43.0099C185.273 43.633 185.142 44.1816 184.88 44.6555C184.621 45.1262 184.23 45.4924 183.707 45.7543C183.186 46.0161 182.532 46.147 181.743 46.147H178.994V44.8246H181.604C182.101 44.8246 182.505 44.7533 182.817 44.6108C183.132 44.4683 183.362 44.2611 183.508 43.9893C183.654 43.7176 183.727 43.3911 183.727 43.0099C183.727 42.6255 183.652 42.2924 183.503 42.0107C183.357 41.7289 183.127 41.5135 182.812 41.3643C182.5 41.2119 182.091 41.1357 181.584 41.1357H179.655V50H178.119ZM183.145 45.4062L185.661 50H183.911L181.445 45.4062H183.145ZM186.463 50V42.3636H187.949V50H186.463ZM187.213 41.1854C186.955 41.1854 186.733 41.0992 186.547 40.9268C186.365 40.7512 186.274 40.5424 186.274 40.3004C186.274 40.0552 186.365 39.8464 186.547 39.674C186.733 39.4983 186.955 39.4105 187.213 39.4105C187.472 39.4105 187.692 39.4983 187.875 39.674C188.06 39.8464 188.153 40.0552 188.153 40.3004C188.153 40.5424 188.06 40.7512 187.875 40.9268C187.692 41.0992 187.472 41.1854 187.213 41.1854ZM195.111 44.228L193.764 44.4666C193.708 44.2943 193.618 44.1302 193.496 43.9744C193.376 43.8187 193.214 43.6911 193.008 43.5916C192.803 43.4922 192.546 43.4425 192.238 43.4425C191.817 43.4425 191.466 43.5369 191.184 43.7259C190.902 43.9115 190.761 44.1518 190.761 44.4467C190.761 44.7019 190.856 44.9074 191.045 45.0632C191.234 45.219 191.538 45.3466 191.959 45.446L193.172 45.7244C193.875 45.8868 194.399 46.1371 194.743 46.4751C195.088 46.8132 195.261 47.2524 195.261 47.7926C195.261 48.25 195.128 48.6577 194.863 49.0156C194.601 49.3703 194.235 49.6487 193.764 49.8509C193.297 50.053 192.755 50.1541 192.138 50.1541C191.283 50.1541 190.586 49.9718 190.045 49.6072C189.505 49.2393 189.174 48.7173 189.051 48.0412L190.488 47.8224C190.577 48.197 190.761 48.4804 191.04 48.6726C191.318 48.8615 191.681 48.956 192.128 48.956C192.616 48.956 193.005 48.8549 193.297 48.6527C193.588 48.4472 193.734 48.197 193.734 47.902C193.734 47.6634 193.645 47.4628 193.466 47.3004C193.29 47.138 193.02 47.0154 192.655 46.9325L191.363 46.6491C190.65 46.4867 190.123 46.2282 189.782 45.8736C189.444 45.5189 189.275 45.0698 189.275 44.5263C189.275 44.0755 189.401 43.6811 189.653 43.343C189.904 43.005 190.252 42.7415 190.697 42.5526C191.141 42.3603 191.649 42.2642 192.223 42.2642C193.048 42.2642 193.698 42.4432 194.172 42.8011C194.646 43.1558 194.959 43.6314 195.111 44.228ZM196.335 50V42.3636H197.821V50H196.335ZM197.086 41.1854C196.827 41.1854 196.605 41.0992 196.419 40.9268C196.237 40.7512 196.146 40.5424 196.146 40.3004C196.146 40.0552 196.237 39.8464 196.419 39.674C196.605 39.4983 196.827 39.4105 197.086 39.4105C197.344 39.4105 197.565 39.4983 197.747 39.674C197.932 39.8464 198.025 40.0552 198.025 40.3004C198.025 40.5424 197.932 40.7512 197.747 40.9268C197.565 41.0992 197.344 41.1854 197.086 41.1854ZM200.748 45.4659V50H199.261V42.3636H200.688V43.6065H200.783C200.958 43.2022 201.233 42.8774 201.608 42.6321C201.986 42.3868 202.461 42.2642 203.035 42.2642C203.555 42.2642 204.011 42.3736 204.402 42.5923C204.793 42.8078 205.096 43.1293 205.312 43.5568C205.527 43.9844 205.635 44.513 205.635 45.1428V50H204.148V45.3217C204.148 44.7682 204.004 44.3357 203.716 44.0241C203.427 43.7093 203.031 43.5518 202.528 43.5518C202.183 43.5518 201.876 43.6264 201.608 43.7756C201.343 43.9247 201.132 44.1435 200.976 44.4318C200.824 44.7169 200.748 45.0616 200.748 45.4659ZM210.27 53.0227C209.664 53.0227 209.142 52.9432 208.704 52.7841C208.27 52.625 207.915 52.4145 207.64 52.1527C207.365 51.8909 207.16 51.6042 207.024 51.2926L208.301 50.7656C208.391 50.9115 208.51 51.0656 208.659 51.228C208.812 51.3937 209.017 51.5346 209.276 51.6506C209.538 51.7666 209.874 51.8246 210.285 51.8246C210.848 51.8246 211.314 51.687 211.682 51.4119C212.05 51.1402 212.234 50.706 212.234 50.1094V48.608H212.139C212.05 48.7704 211.921 48.951 211.752 49.1499C211.586 49.3487 211.357 49.5211 211.066 49.6669C210.774 49.8127 210.394 49.8857 209.927 49.8857C209.324 49.8857 208.78 49.7448 208.296 49.4631C207.816 49.178 207.435 48.7588 207.153 48.2053C206.875 47.6484 206.735 46.964 206.735 46.152C206.735 45.34 206.873 44.6439 207.148 44.0639C207.426 43.4839 207.808 43.0398 208.291 42.7315C208.775 42.42 209.324 42.2642 209.937 42.2642C210.411 42.2642 210.794 42.3438 211.085 42.5028C211.377 42.6586 211.604 42.8409 211.767 43.0497C211.932 43.2585 212.06 43.4425 212.149 43.6016H212.259V42.3636H213.715V50.169C213.715 50.8253 213.563 51.3639 213.258 51.7848C212.953 52.2057 212.54 52.5173 212.02 52.7195C211.503 52.9216 210.92 53.0227 210.27 53.0227ZM210.255 48.6527C210.683 48.6527 211.044 48.5533 211.339 48.3544C211.637 48.1522 211.863 47.8639 212.015 47.4893C212.171 47.1115 212.249 46.6591 212.249 46.1321C212.249 45.6184 212.173 45.166 212.02 44.7749C211.868 44.3838 211.644 44.0788 211.349 43.8601C211.054 43.638 210.689 43.527 210.255 43.527C209.808 43.527 209.435 43.643 209.137 43.875C208.838 44.1037 208.613 44.4152 208.46 44.8097C208.311 45.2041 208.237 45.6449 208.237 46.1321C208.237 46.6326 208.313 47.0717 208.465 47.4496C208.618 47.8274 208.843 48.1224 209.142 48.3345C209.443 48.5466 209.814 48.6527 210.255 48.6527ZM226.631 39.8182V50H225.22L220.044 42.5327H219.95V50H218.413V39.8182H219.835L225.016 47.2955H225.11V39.8182H226.631ZM236.769 43.1293H235.218C235.158 42.7978 235.047 42.5062 234.885 42.2543C234.722 42.0024 234.524 41.7886 234.288 41.6129C234.053 41.4373 233.789 41.3047 233.498 41.2152C233.209 41.1257 232.903 41.081 232.578 41.081C231.991 41.081 231.466 41.2285 231.002 41.5234C230.541 41.8184 230.177 42.2509 229.908 42.821C229.643 43.3911 229.511 44.0871 229.511 44.9091C229.511 45.7377 229.643 46.437 229.908 47.0071C230.177 47.5772 230.543 48.008 231.007 48.2997C231.471 48.5914 231.993 48.7372 232.573 48.7372C232.895 48.7372 233.2 48.6941 233.488 48.608C233.78 48.5185 234.043 48.3875 234.278 48.2152C234.514 48.0429 234.713 47.8324 234.875 47.5838C235.041 47.3319 235.155 47.0436 235.218 46.7188L236.769 46.7237C236.686 47.2242 236.526 47.6849 236.287 48.1058C236.052 48.5234 235.748 48.8847 235.377 49.1896C235.009 49.4912 234.588 49.7249 234.114 49.8906C233.64 50.0563 233.123 50.1392 232.563 50.1392C231.682 50.1392 230.896 49.9304 230.207 49.5128C229.517 49.0919 228.974 48.4903 228.576 47.7081C228.182 46.9259 227.984 45.9929 227.984 44.9091C227.984 43.822 228.183 42.889 228.581 42.1101C228.979 41.3279 229.522 40.728 230.212 40.3104C230.901 39.8894 231.685 39.679 232.563 39.679C233.103 39.679 233.607 39.7569 234.075 39.9126C234.545 40.0651 234.968 40.2905 235.342 40.5888C235.717 40.8838 236.027 41.245 236.272 41.6726C236.517 42.0968 236.683 42.5824 236.769 43.1293ZM241.344 50H238.047V39.8182H241.448C242.446 39.8182 243.302 40.022 244.018 40.4297C244.734 40.834 245.283 41.4157 245.664 42.1747C246.048 42.9304 246.241 43.8369 246.241 44.8942C246.241 45.9548 246.047 46.8662 245.659 47.6286C245.274 48.3909 244.718 48.9775 243.988 49.3885C243.259 49.7962 242.378 50 241.344 50ZM239.584 48.6577H241.259C242.035 48.6577 242.679 48.5118 243.193 48.2202C243.707 47.9252 244.091 47.4993 244.346 46.9425C244.602 46.3823 244.729 45.6996 244.729 44.8942C244.729 44.0954 244.602 43.4176 244.346 42.8608C244.094 42.304 243.718 41.8814 243.218 41.593C242.717 41.3047 242.096 41.1605 241.353 41.1605H239.584V48.6577ZM248.749 39.8182V40.7727C248.749 41.0545 248.696 41.3511 248.59 41.6626C248.487 41.9709 248.342 42.2675 248.153 42.5526C247.964 42.8376 247.742 43.0829 247.486 43.2884L246.751 42.7614C246.946 42.4763 247.115 42.1731 247.258 41.8516C247.404 41.5301 247.477 41.1754 247.477 40.7876V39.8182H248.749ZM254.384 44.228L253.037 44.4666C252.98 44.2943 252.891 44.1302 252.768 43.9744C252.649 43.8187 252.486 43.6911 252.281 43.5916C252.075 43.4922 251.819 43.4425 251.51 43.4425C251.089 43.4425 250.738 43.5369 250.456 43.7259C250.175 43.9115 250.034 44.1518 250.034 44.4467C250.034 44.7019 250.128 44.9074 250.317 45.0632C250.506 45.219 250.811 45.3466 251.232 45.446L252.445 45.7244C253.148 45.8868 253.671 46.1371 254.016 46.4751C254.361 46.8132 254.533 47.2524 254.533 47.7926C254.533 48.25 254.4 48.6577 254.135 49.0156C253.873 49.3703 253.507 49.6487 253.037 49.8509C252.569 50.053 252.027 50.1541 251.411 50.1541C250.556 50.1541 249.858 49.9718 249.318 49.6072C248.778 49.2393 248.446 48.7173 248.323 48.0412L249.76 47.8224C249.85 48.197 250.034 48.4804 250.312 48.6726C250.591 48.8615 250.953 48.956 251.401 48.956C251.888 48.956 252.278 48.8549 252.569 48.6527C252.861 48.4472 253.007 48.197 253.007 47.902C253.007 47.6634 252.917 47.4628 252.738 47.3004C252.563 47.138 252.292 47.0154 251.928 46.9325L250.635 46.6491C249.923 46.4867 249.396 46.2282 249.054 45.8736C248.716 45.5189 248.547 45.0698 248.547 44.5263C248.547 44.0755 248.673 43.6811 248.925 43.343C249.177 43.005 249.525 42.7415 249.969 42.5526C250.413 42.3603 250.922 42.2642 251.495 42.2642C252.321 42.2642 252.97 42.4432 253.444 42.8011C253.918 43.1558 254.231 43.6314 254.384 44.228ZM257.541 48.608L257.467 49.1499C257.417 49.5476 257.333 49.9619 257.213 50.3928C257.097 50.8269 256.976 51.2296 256.85 51.6009C256.728 51.9721 256.627 52.267 256.547 52.4858H255.493C255.536 52.2803 255.596 52.0019 255.672 51.6506C255.748 51.3026 255.823 50.9131 255.896 50.4822C255.969 50.0514 256.023 49.6122 256.06 49.1648L256.11 48.608H257.541ZM182.837 63.8331V59.3636H184.328V67H182.866V65.6776H182.787C182.611 66.0852 182.33 66.425 181.942 66.6967C181.557 66.9652 181.078 67.0994 180.505 67.0994C180.014 67.0994 179.58 66.9917 179.202 66.7763C178.828 66.5575 178.533 66.2344 178.317 65.8068C178.105 65.3793 177.999 64.8506 177.999 64.2209V59.3636H179.486V64.0419C179.486 64.5623 179.63 64.9766 179.918 65.2848C180.207 65.593 180.581 65.7472 181.042 65.7472C181.32 65.7472 181.597 65.6776 181.872 65.5384C182.151 65.3991 182.381 65.1887 182.563 64.907C182.749 64.6252 182.84 64.2673 182.837 63.8331ZM187.252 62.4659V67H185.765V59.3636H187.192V60.6065H187.287C187.462 60.2022 187.738 59.8774 188.112 59.6321C188.49 59.3868 188.966 59.2642 189.539 59.2642C190.059 59.2642 190.515 59.3736 190.906 59.5923C191.297 59.8078 191.6 60.1293 191.816 60.5568C192.031 60.9844 192.139 61.513 192.139 62.1428V67H190.653V62.3217C190.653 61.7682 190.508 61.3357 190.22 61.0241C189.932 60.7093 189.536 60.5518 189.032 60.5518C188.687 60.5518 188.381 60.6264 188.112 60.7756C187.847 60.9247 187.636 61.1435 187.481 61.4318C187.328 61.7169 187.252 62.0616 187.252 62.4659ZM196.431 67.1491C195.815 67.1491 195.265 66.9917 194.781 66.6768C194.3 66.3587 193.922 65.9062 193.647 65.3196C193.375 64.7296 193.24 64.022 193.24 63.1967C193.24 62.3714 193.377 61.6655 193.652 61.0788C193.931 60.4922 194.312 60.0431 194.796 59.7315C195.28 59.42 195.828 59.2642 196.441 59.2642C196.915 59.2642 197.296 59.3438 197.585 59.5028C197.876 59.6586 198.102 59.8409 198.261 60.0497C198.423 60.2585 198.549 60.4425 198.639 60.6016H198.728V56.8182H200.215V67H198.763V65.8118H198.639C198.549 65.9742 198.42 66.1598 198.251 66.3686C198.085 66.5774 197.857 66.7597 197.565 66.9155C197.273 67.0713 196.895 67.1491 196.431 67.1491ZM196.759 65.8814C197.187 65.8814 197.548 65.7687 197.843 65.5433C198.142 65.3146 198.367 64.9981 198.519 64.5938C198.675 64.1894 198.753 63.7187 198.753 63.1818C198.753 62.6515 198.677 62.1875 198.524 61.7898C198.372 61.392 198.148 61.0821 197.853 60.8601C197.558 60.638 197.194 60.527 196.759 60.527C196.312 60.527 195.939 60.643 195.641 60.875C195.343 61.107 195.117 61.4235 194.965 61.8246C194.816 62.2256 194.741 62.678 194.741 63.1818C194.741 63.6922 194.817 64.1513 194.97 64.5589C195.122 64.9666 195.348 65.2898 195.646 65.5284C195.947 65.7637 196.319 65.8814 196.759 65.8814ZM201.776 67V59.3636H203.263V67H201.776ZM202.527 58.1854C202.269 58.1854 202.046 58.0992 201.861 57.9268C201.679 57.7512 201.587 57.5424 201.587 57.3004C201.587 57.0552 201.679 56.8464 201.861 56.674C202.046 56.4983 202.269 56.4105 202.527 56.4105C202.786 56.4105 203.006 56.4983 203.188 56.674C203.374 56.8464 203.467 57.0552 203.467 57.3004C203.467 57.5424 203.374 57.7512 203.188 57.9268C203.006 58.0992 202.786 58.1854 202.527 58.1854ZM206.925 67.169C206.441 67.169 206.004 67.0795 205.612 66.9006C205.221 66.7183 204.911 66.4548 204.683 66.1101C204.457 65.7654 204.345 65.3428 204.345 64.8423C204.345 64.4115 204.428 64.0568 204.593 63.7784C204.759 63.5 204.983 63.2796 205.264 63.1172C205.546 62.9548 205.861 62.8321 206.209 62.7493C206.557 62.6664 206.912 62.6035 207.273 62.5604C207.73 62.5073 208.102 62.4643 208.387 62.4311C208.672 62.3946 208.879 62.3366 209.008 62.2571C209.137 62.1776 209.202 62.0483 209.202 61.8693V61.8345C209.202 61.4003 209.079 61.0639 208.834 60.8253C208.592 60.5866 208.231 60.4673 207.75 60.4673C207.25 60.4673 206.855 60.5784 206.567 60.8004C206.282 61.0192 206.085 61.2628 205.975 61.5312L204.578 61.2131C204.744 60.7491 204.986 60.3745 205.304 60.0895C205.626 59.8011 205.995 59.5923 206.413 59.4631C206.83 59.3305 207.27 59.2642 207.73 59.2642C208.035 59.2642 208.358 59.3007 208.7 59.3736C209.045 59.4432 209.366 59.5724 209.664 59.7614C209.966 59.9503 210.213 60.2204 210.405 60.5717C210.597 60.9197 210.693 61.3722 210.693 61.929V67H209.242V65.956H209.182C209.086 66.1482 208.942 66.3371 208.75 66.5227C208.557 66.7083 208.31 66.8625 208.009 66.9851C207.707 67.1077 207.346 67.169 206.925 67.169ZM207.248 65.9759C207.659 65.9759 208.01 65.8946 208.302 65.7322C208.597 65.5698 208.821 65.3577 208.973 65.0959C209.129 64.8307 209.207 64.5473 209.207 64.2457V63.2614C209.154 63.3144 209.051 63.3641 208.899 63.4105C208.75 63.4536 208.579 63.4917 208.387 63.5249C208.194 63.5547 208.007 63.5829 207.825 63.6094C207.643 63.6326 207.49 63.6525 207.367 63.669C207.079 63.7055 206.816 63.7668 206.577 63.853C206.342 63.9392 206.153 64.0634 206.01 64.2259C205.871 64.3849 205.801 64.5971 205.801 64.8622C205.801 65.2301 205.937 65.5085 206.209 65.6974C206.481 65.883 206.827 65.9759 207.248 65.9759ZM215.315 70.0227C214.709 70.0227 214.187 69.9432 213.749 69.7841C213.315 69.625 212.96 69.4145 212.685 69.1527C212.41 68.8909 212.204 68.6042 212.069 68.2926L213.346 67.7656C213.436 67.9115 213.555 68.0656 213.704 68.228C213.857 68.3937 214.062 68.5346 214.321 68.6506C214.583 68.7666 214.919 68.8246 215.33 68.8246C215.893 68.8246 216.359 68.687 216.727 68.4119C217.095 68.1402 217.279 67.706 217.279 67.1094V65.608H217.184C217.095 65.7704 216.966 65.951 216.797 66.1499C216.631 66.3487 216.402 66.5211 216.111 66.6669C215.819 66.8127 215.439 66.8857 214.972 66.8857C214.369 66.8857 213.825 66.7448 213.341 66.4631C212.861 66.178 212.48 65.7588 212.198 65.2053C211.919 64.6484 211.78 63.964 211.78 63.152C211.78 62.34 211.918 61.6439 212.193 61.0639C212.471 60.4839 212.852 60.0398 213.336 59.7315C213.82 59.42 214.369 59.2642 214.982 59.2642C215.456 59.2642 215.839 59.3438 216.13 59.5028C216.422 59.6586 216.649 59.8409 216.812 60.0497C216.977 60.2585 217.105 60.4425 217.194 60.6016H217.304V59.3636H218.76V67.169C218.76 67.8253 218.608 68.3639 218.303 68.7848C217.998 69.2057 217.585 69.5173 217.065 69.7195C216.548 69.9216 215.965 70.0227 215.315 70.0227ZM215.3 65.6527C215.728 65.6527 216.089 65.5533 216.384 65.3544C216.682 65.1522 216.908 64.8639 217.06 64.4893C217.216 64.1115 217.294 63.6591 217.294 63.1321C217.294 62.6184 217.218 62.166 217.065 61.7749C216.913 61.3838 216.689 61.0788 216.394 60.8601C216.099 60.638 215.734 60.527 215.3 60.527C214.853 60.527 214.48 60.643 214.182 60.875C213.883 61.1037 213.658 61.4152 213.505 61.8097C213.356 62.2041 213.282 62.6449 213.282 63.1321C213.282 63.6326 213.358 64.0717 213.51 64.4496C213.663 64.8274 213.888 65.1224 214.187 65.3345C214.488 65.5466 214.859 65.6527 215.3 65.6527ZM221.68 62.4659V67H220.194V59.3636H221.621V60.6065H221.715C221.891 60.2022 222.166 59.8774 222.541 59.6321C222.918 59.3868 223.394 59.2642 223.967 59.2642C224.488 59.2642 224.944 59.3736 225.335 59.5923C225.726 59.8078 226.029 60.1293 226.244 60.5568C226.46 60.9844 226.568 61.513 226.568 62.1428V67H225.081V62.3217C225.081 61.7682 224.937 61.3357 224.649 61.0241C224.36 60.7093 223.964 60.5518 223.46 60.5518C223.116 60.5518 222.809 60.6264 222.541 60.7756C222.275 60.9247 222.065 61.1435 221.909 61.4318C221.757 61.7169 221.68 62.0616 221.68 62.4659ZM231.218 67.1541C230.502 67.1541 229.877 66.9901 229.343 66.6619C228.81 66.3338 228.396 65.8748 228.101 65.2848C227.806 64.6948 227.658 64.0054 227.658 63.2166C227.658 62.4245 227.806 61.7318 228.101 61.1385C228.396 60.5452 228.81 60.0845 229.343 59.7564C229.877 59.4283 230.502 59.2642 231.218 59.2642C231.934 59.2642 232.558 59.4283 233.092 59.7564C233.626 60.0845 234.04 60.5452 234.335 61.1385C234.63 61.7318 234.777 62.4245 234.777 63.2166C234.777 64.0054 234.63 64.6948 234.335 65.2848C234.04 65.8748 233.626 66.3338 233.092 66.6619C232.558 66.9901 231.934 67.1541 231.218 67.1541ZM231.223 65.9062C231.687 65.9062 232.071 65.7836 232.376 65.5384C232.681 65.2931 232.906 64.9666 233.052 64.5589C233.201 64.1513 233.276 63.7022 233.276 63.2116C233.276 62.7244 233.201 62.277 233.052 61.8693C232.906 61.4583 232.681 61.1286 232.376 60.88C232.071 60.6314 231.687 60.5071 231.223 60.5071C230.755 60.5071 230.368 60.6314 230.059 60.88C229.754 61.1286 229.527 61.4583 229.378 61.8693C229.232 62.277 229.16 62.7244 229.16 63.2116C229.16 63.7022 229.232 64.1513 229.378 64.5589C229.527 64.9666 229.754 65.2931 230.059 65.5384C230.368 65.7836 230.755 65.9062 231.223 65.9062ZM241.599 61.228L240.252 61.4666C240.195 61.2943 240.106 61.1302 239.983 60.9744C239.864 60.8187 239.702 60.6911 239.496 60.5916C239.291 60.4922 239.034 60.4425 238.725 60.4425C238.305 60.4425 237.953 60.5369 237.671 60.7259C237.39 60.9115 237.249 61.1518 237.249 61.4467C237.249 61.7019 237.343 61.9074 237.532 62.0632C237.721 62.219 238.026 62.3466 238.447 62.446L239.66 62.7244C240.363 62.8868 240.886 63.1371 241.231 63.4751C241.576 63.8132 241.748 64.2524 241.748 64.7926C241.748 65.25 241.616 65.6577 241.35 66.0156C241.089 66.3703 240.722 66.6487 240.252 66.8509C239.784 67.053 239.242 67.1541 238.626 67.1541C237.771 67.1541 237.073 66.9718 236.533 66.6072C235.993 66.2393 235.661 65.7173 235.539 65.0412L236.975 64.8224C237.065 65.197 237.249 65.4804 237.527 65.6726C237.806 65.8615 238.169 65.956 238.616 65.956C239.103 65.956 239.493 65.8549 239.784 65.6527C240.076 65.4472 240.222 65.197 240.222 64.902C240.222 64.6634 240.132 64.4628 239.953 64.3004C239.778 64.138 239.508 64.0154 239.143 63.9325L237.85 63.6491C237.138 63.4867 236.611 63.2282 236.269 62.8736C235.931 62.5189 235.762 62.0698 235.762 61.5263C235.762 61.0755 235.888 60.6811 236.14 60.343C236.392 60.005 236.74 59.7415 237.184 59.5526C237.628 59.3603 238.137 59.2642 238.711 59.2642C239.536 59.2642 240.185 59.4432 240.659 59.8011C241.133 60.1558 241.447 60.6314 241.599 61.228ZM246.114 67.1541C245.361 67.1541 244.713 66.9934 244.17 66.6719C243.63 66.3471 243.212 65.8913 242.917 65.3047C242.625 64.7147 242.48 64.0237 242.48 63.2315C242.48 62.4493 242.625 61.7599 242.917 61.1634C243.212 60.5668 243.623 60.1011 244.15 59.7663C244.68 59.4316 245.3 59.2642 246.009 59.2642C246.44 59.2642 246.858 59.3355 247.262 59.478C247.667 59.6205 248.029 59.8442 248.351 60.1491C248.672 60.4541 248.926 60.8501 249.112 61.3374C249.297 61.8213 249.39 62.4096 249.39 63.1023V63.6293H243.32V62.5156H247.933C247.933 62.1245 247.854 61.7782 247.695 61.4766C247.536 61.1716 247.312 60.9313 247.024 60.7557C246.739 60.58 246.404 60.4922 246.019 60.4922C245.602 60.4922 245.237 60.5949 244.926 60.8004C244.617 61.0026 244.379 61.2678 244.21 61.5959C244.044 61.9207 243.961 62.2737 243.961 62.6548V63.5249C243.961 64.0353 244.051 64.4695 244.23 64.8274C244.412 65.1854 244.665 65.4588 244.99 65.6477C245.315 65.8333 245.694 65.9261 246.129 65.9261C246.41 65.9261 246.667 65.8864 246.899 65.8068C247.131 65.724 247.332 65.6013 247.501 65.4389C247.67 65.2765 247.799 65.076 247.889 64.8374L249.296 65.0909C249.183 65.5052 248.981 65.8681 248.689 66.1797C248.401 66.4879 248.038 66.7282 247.6 66.9006C247.166 67.0696 246.671 67.1541 246.114 67.1541ZM253.338 67.1491C252.722 67.1491 252.171 66.9917 251.687 66.6768C251.207 66.3587 250.829 65.9062 250.554 65.3196C250.282 64.7296 250.146 64.022 250.146 63.1967C250.146 62.3714 250.284 61.6655 250.559 61.0788C250.837 60.4922 251.218 60.0431 251.702 59.7315C252.186 59.42 252.735 59.2642 253.348 59.2642C253.822 59.2642 254.203 59.3438 254.491 59.5028C254.783 59.6586 255.008 59.8409 255.168 60.0497C255.33 60.2585 255.456 60.4425 255.545 60.6016H255.635V56.8182H257.121V67H255.67V65.8118H255.545C255.456 65.9742 255.327 66.1598 255.158 66.3686C254.992 66.5774 254.763 66.7597 254.472 66.9155C254.18 67.0713 253.802 67.1491 253.338 67.1491ZM253.666 65.8814C254.094 65.8814 254.455 65.7687 254.75 65.5433C255.048 65.3146 255.274 64.9981 255.426 64.5938C255.582 64.1894 255.66 63.7187 255.66 63.1818C255.66 62.6515 255.584 62.1875 255.431 61.7898C255.279 61.392 255.055 61.0821 254.76 60.8601C254.465 60.638 254.1 60.527 253.666 60.527C253.219 60.527 252.846 60.643 252.548 60.875C252.249 61.107 252.024 61.4235 251.871 61.8246C251.722 62.2256 251.648 62.678 251.648 63.1818C251.648 63.6922 251.724 64.1513 251.876 64.5589C252.029 64.9666 252.254 65.2898 252.553 65.5284C252.854 65.7637 253.225 65.8814 253.666 65.8814ZM265.045 67.1541C264.306 67.1541 263.669 66.9867 263.136 66.652C262.605 66.3139 262.198 65.8482 261.913 65.255C261.628 64.6617 261.485 63.9822 261.485 63.2166C261.485 62.4411 261.631 61.7566 261.923 61.1634C262.214 60.5668 262.625 60.1011 263.156 59.7663C263.686 59.4316 264.311 59.2642 265.03 59.2642C265.61 59.2642 266.127 59.3719 266.581 59.5874C267.035 59.7995 267.401 60.0978 267.68 60.4822C267.961 60.8667 268.129 61.3158 268.182 61.8295H266.735C266.656 61.4716 266.473 61.1634 266.188 60.9048C265.906 60.6463 265.529 60.517 265.055 60.517C264.64 60.517 264.277 60.6264 263.966 60.8452C263.658 61.0606 263.417 61.3688 263.245 61.7699C263.073 62.1676 262.986 62.6383 262.986 63.1818C262.986 63.7386 263.071 64.2192 263.24 64.6236C263.409 65.0279 263.648 65.3411 263.956 65.5632C264.268 65.7853 264.634 65.8963 265.055 65.8963C265.336 65.8963 265.592 65.8449 265.82 65.7422C266.052 65.6361 266.246 65.4853 266.402 65.2898C266.561 65.0942 266.672 64.8589 266.735 64.5838H268.182C268.129 65.0777 267.968 65.5185 267.7 65.9062C267.431 66.294 267.071 66.599 266.621 66.821C266.173 67.0431 265.648 67.1541 265.045 67.1541ZM272.428 67.1541C271.712 67.1541 271.087 66.9901 270.554 66.6619C270.02 66.3338 269.606 65.8748 269.311 65.2848C269.016 64.6948 268.868 64.0054 268.868 63.2166C268.868 62.4245 269.016 61.7318 269.311 61.1385C269.606 60.5452 270.02 60.0845 270.554 59.7564C271.087 59.4283 271.712 59.2642 272.428 59.2642C273.144 59.2642 273.769 59.4283 274.302 59.7564C274.836 60.0845 275.25 60.5452 275.545 61.1385C275.84 61.7318 275.988 62.4245 275.988 63.2166C275.988 64.0054 275.84 64.6948 275.545 65.2848C275.25 65.8748 274.836 66.3338 274.302 66.6619C273.769 66.9901 273.144 67.1541 272.428 67.1541ZM272.433 65.9062C272.897 65.9062 273.282 65.7836 273.586 65.5384C273.891 65.2931 274.117 64.9666 274.263 64.5589C274.412 64.1513 274.486 63.7022 274.486 63.2116C274.486 62.7244 274.412 62.277 274.263 61.8693C274.117 61.4583 273.891 61.1286 273.586 60.88C273.282 60.6314 272.897 60.5071 272.433 60.5071C271.966 60.5071 271.578 60.6314 271.27 60.88C270.965 61.1286 270.738 61.4583 270.589 61.8693C270.443 62.277 270.37 62.7244 270.37 63.2116C270.37 63.7022 270.443 64.1513 270.589 64.5589C270.738 64.9666 270.965 65.2931 271.27 65.5384C271.578 65.7836 271.966 65.9062 272.433 65.9062ZM278.574 62.4659V67H277.087V59.3636H278.514V60.6065H278.608C278.784 60.2022 279.059 59.8774 279.434 59.6321C279.811 59.3868 280.287 59.2642 280.86 59.2642C281.381 59.2642 281.837 59.3736 282.228 59.5923C282.619 59.8078 282.922 60.1293 283.137 60.5568C283.353 60.9844 283.461 61.513 283.461 62.1428V67H281.974V62.3217C281.974 61.7682 281.83 61.3357 281.542 61.0241C281.253 60.7093 280.857 60.5518 280.353 60.5518C280.009 60.5518 279.702 60.6264 279.434 60.7756C279.168 60.9247 278.958 61.1435 278.802 61.4318C278.65 61.7169 278.574 62.0616 278.574 62.4659ZM287.753 67.1491C287.136 67.1491 286.586 66.9917 286.102 66.6768C285.622 66.3587 285.244 65.9062 284.969 65.3196C284.697 64.7296 284.561 64.022 284.561 63.1967C284.561 62.3714 284.699 61.6655 284.974 61.0788C285.252 60.4922 285.633 60.0431 286.117 59.7315C286.601 59.42 287.15 59.2642 287.763 59.2642C288.237 59.2642 288.618 59.3438 288.906 59.5028C289.198 59.6586 289.423 59.8409 289.582 60.0497C289.745 60.2585 289.871 60.4425 289.96 60.6016H290.05V56.8182H291.536V67H290.085V65.8118H289.96C289.871 65.9742 289.742 66.1598 289.572 66.3686C289.407 66.5774 289.178 66.7597 288.886 66.9155C288.595 67.0713 288.217 67.1491 287.753 67.1491ZM288.081 65.8814C288.509 65.8814 288.87 65.7687 289.165 65.5433C289.463 65.3146 289.688 64.9981 289.841 64.5938C289.997 64.1894 290.075 63.7187 290.075 63.1818C290.075 62.6515 289.998 62.1875 289.846 61.7898C289.693 61.392 289.47 61.0821 289.175 60.8601C288.88 60.638 288.515 60.527 288.081 60.527C287.634 60.527 287.261 60.643 286.962 60.875C286.664 61.107 286.439 61.4235 286.286 61.8246C286.137 62.2256 286.063 62.678 286.063 63.1818C286.063 63.6922 286.139 64.1513 286.291 64.5589C286.444 64.9666 286.669 65.2898 286.967 65.5284C287.269 65.7637 287.64 65.8814 288.081 65.8814ZM293.098 67V59.3636H294.584V67H293.098ZM293.849 58.1854C293.59 58.1854 293.368 58.0992 293.182 57.9268C293 57.7512 292.909 57.5424 292.909 57.3004C292.909 57.0552 293 56.8464 293.182 56.674C293.368 56.4983 293.59 56.4105 293.849 56.4105C294.107 56.4105 294.328 56.4983 294.51 56.674C294.695 56.8464 294.788 57.0552 294.788 57.3004C294.788 57.5424 294.695 57.7512 294.51 57.9268C294.328 58.0992 294.107 58.1854 293.849 58.1854ZM299.589 59.3636V60.5568H295.418V59.3636H299.589ZM296.536 57.5341H298.023V64.7578C298.023 65.0462 298.066 65.2633 298.152 65.4091C298.238 65.5516 298.349 65.6494 298.485 65.7024C298.624 65.7521 298.775 65.777 298.938 65.777C299.057 65.777 299.161 65.7687 299.251 65.7521C299.34 65.7356 299.41 65.7223 299.46 65.7124L299.728 66.9403C299.642 66.9735 299.519 67.0066 299.36 67.0398C299.201 67.0762 299.002 67.0961 298.764 67.0994C298.372 67.1061 298.008 67.0365 297.67 66.8906C297.332 66.7448 297.058 66.5194 296.849 66.2145C296.641 65.9096 296.536 65.5268 296.536 65.0661V57.5341ZM300.673 67V59.3636H302.16V67H300.673ZM301.424 58.1854C301.165 58.1854 300.943 58.0992 300.758 57.9268C300.575 57.7512 300.484 57.5424 300.484 57.3004C300.484 57.0552 300.575 56.8464 300.758 56.674C300.943 56.4983 301.165 56.4105 301.424 56.4105C301.682 56.4105 301.903 56.4983 302.085 56.674C302.271 56.8464 302.364 57.0552 302.364 57.3004C302.364 57.5424 302.271 57.7512 302.085 57.9268C301.903 58.0992 301.682 58.1854 301.424 58.1854ZM306.816 67.1541C306.1 67.1541 305.475 66.9901 304.942 66.6619C304.408 66.3338 303.994 65.8748 303.699 65.2848C303.404 64.6948 303.256 64.0054 303.256 63.2166C303.256 62.4245 303.404 61.7318 303.699 61.1385C303.994 60.5452 304.408 60.0845 304.942 59.7564C305.475 59.4283 306.1 59.2642 306.816 59.2642C307.532 59.2642 308.157 59.4283 308.69 59.7564C309.224 60.0845 309.638 60.5452 309.933 61.1385C310.228 61.7318 310.376 62.4245 310.376 63.2166C310.376 64.0054 310.228 64.6948 309.933 65.2848C309.638 65.8748 309.224 66.3338 308.69 66.6619C308.157 66.9901 307.532 67.1541 306.816 67.1541ZM306.821 65.9062C307.285 65.9062 307.67 65.7836 307.975 65.5384C308.279 65.2931 308.505 64.9666 308.651 64.5589C308.8 64.1513 308.874 63.7022 308.874 63.2116C308.874 62.7244 308.8 62.277 308.651 61.8693C308.505 61.4583 308.279 61.1286 307.975 60.88C307.67 60.6314 307.285 60.5071 306.821 60.5071C306.354 60.5071 305.966 60.6314 305.658 60.88C305.353 61.1286 305.126 61.4583 304.977 61.8693C304.831 62.277 304.758 62.7244 304.758 63.2116C304.758 63.7022 304.831 64.1513 304.977 64.5589C305.126 64.9666 305.353 65.2931 305.658 65.5384C305.966 65.7836 306.354 65.9062 306.821 65.9062ZM312.962 62.4659V67H311.475V59.3636H312.902V60.6065H312.996C313.172 60.2022 313.447 59.8774 313.822 59.6321C314.2 59.3868 314.675 59.2642 315.249 59.2642C315.769 59.2642 316.225 59.3736 316.616 59.5923C317.007 59.8078 317.31 60.1293 317.526 60.5568C317.741 60.9844 317.849 61.513 317.849 62.1428V67H316.362V62.3217C316.362 61.7682 316.218 61.3357 315.93 61.0241C315.641 60.7093 315.245 60.5518 314.741 60.5518C314.397 60.5518 314.09 60.6264 313.822 60.7756C313.557 60.9247 313.346 61.1435 313.19 61.4318C313.038 61.7169 312.962 62.0616 312.962 62.4659ZM325.005 61.228L323.657 61.4666C323.601 61.2943 323.511 61.1302 323.389 60.9744C323.269 60.8187 323.107 60.6911 322.902 60.5916C322.696 60.4922 322.439 60.4425 322.131 60.4425C321.71 60.4425 321.359 60.5369 321.077 60.7259C320.795 60.9115 320.654 61.1518 320.654 61.4467C320.654 61.7019 320.749 61.9074 320.938 62.0632C321.127 62.219 321.432 62.3466 321.853 62.446L323.066 62.7244C323.768 62.8868 324.292 63.1371 324.637 63.4751C324.981 63.8132 325.154 64.2524 325.154 64.7926C325.154 65.25 325.021 65.6577 324.756 66.0156C324.494 66.3703 324.128 66.6487 323.657 66.8509C323.19 67.053 322.648 67.1541 322.032 67.1541C321.176 67.1541 320.479 66.9718 319.939 66.6072C319.398 66.2393 319.067 65.7173 318.944 65.0412L320.381 64.8224C320.47 65.197 320.654 65.4804 320.933 65.6726C321.211 65.8615 321.574 65.956 322.022 65.956C322.509 65.956 322.898 65.8549 323.19 65.6527C323.482 65.4472 323.627 65.197 323.627 64.902C323.627 64.6634 323.538 64.4628 323.359 64.3004C323.183 64.138 322.913 64.0154 322.549 63.9325L321.256 63.6491C320.543 63.4867 320.016 63.2282 319.675 62.8736C319.337 62.5189 319.168 62.0698 319.168 61.5263C319.168 61.0755 319.294 60.6811 319.546 60.343C319.798 60.005 320.146 59.7415 320.59 59.5526C321.034 59.3603 321.543 59.2642 322.116 59.2642C322.941 59.2642 323.591 59.4432 324.065 59.8011C324.539 60.1558 324.852 60.6314 325.005 61.228ZM328.162 65.608L328.087 66.1499C328.038 66.5476 327.953 66.9619 327.834 67.3928C327.718 67.8269 327.597 68.2296 327.471 68.6009C327.348 68.9721 327.247 69.267 327.168 69.4858H326.114C326.157 69.2803 326.217 69.0019 326.293 68.6506C326.369 68.3026 326.444 67.9131 326.516 67.4822C326.589 67.0514 326.644 66.6122 326.681 66.1648L326.73 65.608H328.162ZM180.858 84.1491C180.241 84.1491 179.691 83.9917 179.207 83.6768C178.727 83.3587 178.349 82.9062 178.074 82.3196C177.802 81.7296 177.666 81.022 177.666 80.1967C177.666 79.3714 177.804 78.6655 178.079 78.0788C178.357 77.4922 178.738 77.0431 179.222 76.7315C179.706 76.42 180.255 76.2642 180.868 76.2642C181.342 76.2642 181.723 76.3438 182.011 76.5028C182.303 76.6586 182.528 76.8409 182.688 77.0497C182.85 77.2585 182.976 77.4425 183.065 77.6016H183.155V73.8182H184.641V84H183.19V82.8118H183.065C182.976 82.9742 182.847 83.1598 182.678 83.3686C182.512 83.5774 182.283 83.7597 181.991 83.9155C181.7 84.0713 181.322 84.1491 180.858 84.1491ZM181.186 82.8814C181.614 82.8814 181.975 82.7687 182.27 82.5433C182.568 82.3146 182.794 81.9981 182.946 81.5938C183.102 81.1894 183.18 80.7187 183.18 80.1818C183.18 79.6515 183.103 79.1875 182.951 78.7898C182.799 78.392 182.575 78.0821 182.28 77.8601C181.985 77.638 181.62 77.527 181.186 77.527C180.739 77.527 180.366 77.643 180.067 77.875C179.769 78.107 179.544 78.4235 179.391 78.8246C179.242 79.2256 179.168 79.678 179.168 80.1818C179.168 80.6922 179.244 81.1513 179.396 81.5589C179.549 81.9666 179.774 82.2898 180.072 82.5284C180.374 82.7637 180.745 82.8814 181.186 82.8814ZM189.494 84.1541C188.742 84.1541 188.094 83.9934 187.55 83.6719C187.01 83.3471 186.592 82.8913 186.297 82.3047C186.006 81.7147 185.86 81.0237 185.86 80.2315C185.86 79.4493 186.006 78.7599 186.297 78.1634C186.592 77.5668 187.003 77.1011 187.53 76.7663C188.061 76.4316 188.68 76.2642 189.39 76.2642C189.821 76.2642 190.238 76.3355 190.643 76.478C191.047 76.6205 191.41 76.8442 191.731 77.1491C192.053 77.4541 192.306 77.8501 192.492 78.3374C192.678 78.8213 192.77 79.4096 192.77 80.1023V80.6293H186.7V79.5156H191.314C191.314 79.1245 191.234 78.7782 191.075 78.4766C190.916 78.1716 190.692 77.9313 190.404 77.7557C190.119 77.58 189.784 77.4922 189.4 77.4922C188.982 77.4922 188.617 77.5949 188.306 77.8004C187.998 78.0026 187.759 78.2678 187.59 78.5959C187.424 78.9207 187.341 79.2737 187.341 79.6548V80.5249C187.341 81.0353 187.431 81.4695 187.61 81.8274C187.792 82.1854 188.046 82.4588 188.371 82.6477C188.695 82.8333 189.075 82.9261 189.509 82.9261C189.791 82.9261 190.048 82.8864 190.28 82.8068C190.512 82.724 190.712 82.6013 190.881 82.4389C191.05 82.2765 191.18 82.076 191.269 81.8374L192.676 82.0909C192.563 82.5052 192.361 82.8681 192.069 83.1797C191.781 83.4879 191.418 83.7282 190.981 83.9006C190.546 84.0696 190.051 84.1541 189.494 84.1541ZM195.346 73.8182V84H193.86V73.8182H195.346ZM199.008 84.169C198.524 84.169 198.087 84.0795 197.696 83.9006C197.305 83.7183 196.995 83.4548 196.766 83.1101C196.541 82.7654 196.428 82.3428 196.428 81.8423C196.428 81.4115 196.511 81.0568 196.677 80.7784C196.842 80.5 197.066 80.2796 197.348 80.1172C197.63 79.9548 197.944 79.8321 198.292 79.7493C198.64 79.6664 198.995 79.6035 199.356 79.5604C199.814 79.5073 200.185 79.4643 200.47 79.4311C200.755 79.3946 200.962 79.3366 201.091 79.2571C201.221 79.1776 201.285 79.0483 201.285 78.8693V78.8345C201.285 78.4003 201.163 78.0639 200.917 77.8253C200.676 77.5866 200.314 77.4673 199.834 77.4673C199.333 77.4673 198.939 77.5784 198.65 77.8004C198.365 78.0192 198.168 78.2628 198.059 78.5312L196.662 78.2131C196.828 77.7491 197.069 77.3745 197.388 77.0895C197.709 76.8011 198.079 76.5923 198.496 76.4631C198.914 76.3305 199.353 76.2642 199.814 76.2642C200.119 76.2642 200.442 76.3007 200.783 76.3736C201.128 76.4432 201.449 76.5724 201.748 76.7614C202.049 76.9503 202.296 77.2204 202.489 77.5717C202.681 77.9197 202.777 78.3722 202.777 78.929V84H201.325V82.956H201.265C201.169 83.1482 201.025 83.3371 200.833 83.5227C200.641 83.7083 200.394 83.8625 200.092 83.9851C199.791 84.1077 199.429 84.169 199.008 84.169ZM199.332 82.9759C199.743 82.9759 200.094 82.8946 200.386 82.7322C200.68 82.5698 200.904 82.3577 201.057 82.0959C201.212 81.8307 201.29 81.5473 201.29 81.2457V80.2614C201.237 80.3144 201.135 80.3641 200.982 80.4105C200.833 80.4536 200.662 80.4917 200.47 80.5249C200.278 80.5547 200.091 80.5829 199.908 80.6094C199.726 80.6326 199.573 80.6525 199.451 80.669C199.163 80.7055 198.899 80.7668 198.66 80.853C198.425 80.9392 198.236 81.0634 198.094 81.2259C197.954 81.3849 197.885 81.5971 197.885 81.8622C197.885 82.2301 198.021 82.5085 198.292 82.6974C198.564 82.883 198.911 82.9759 199.332 82.9759ZM204.863 86.8636C204.641 86.8636 204.439 86.8454 204.256 86.8089C204.074 86.7758 203.938 86.7393 203.849 86.6996L204.207 85.4815C204.479 85.5545 204.72 85.5859 204.933 85.576C205.145 85.5661 205.332 85.4865 205.494 85.3374C205.66 85.1882 205.806 84.9446 205.932 84.6065L206.116 84.0994L203.322 76.3636H204.913L206.847 82.2898H206.926L208.86 76.3636H210.456L207.309 85.0192C207.163 85.4169 206.978 85.7533 206.752 86.0284C206.527 86.3068 206.258 86.5156 205.947 86.6548C205.635 86.794 205.274 86.8636 204.863 86.8636ZM214.324 84.1541C213.572 84.1541 212.924 83.9934 212.381 83.6719C211.84 83.3471 211.423 82.8913 211.128 82.3047C210.836 81.7147 210.69 81.0237 210.69 80.2315C210.69 79.4493 210.836 78.7599 211.128 78.1634C211.423 77.5668 211.834 77.1011 212.361 76.7663C212.891 76.4316 213.511 76.2642 214.22 76.2642C214.651 76.2642 215.069 76.3355 215.473 76.478C215.877 76.6205 216.24 76.8442 216.562 77.1491C216.883 77.4541 217.137 77.8501 217.322 78.3374C217.508 78.8213 217.601 79.4096 217.601 80.1023V80.6293H211.53V79.5156H216.144C216.144 79.1245 216.065 78.7782 215.905 78.4766C215.746 78.1716 215.523 77.9313 215.234 77.7557C214.949 77.58 214.614 77.4922 214.23 77.4922C213.812 77.4922 213.448 77.5949 213.136 77.8004C212.828 78.0026 212.589 78.2678 212.42 78.5959C212.255 78.9207 212.172 79.2737 212.172 79.6548V80.5249C212.172 81.0353 212.261 81.4695 212.44 81.8274C212.623 82.1854 212.876 82.4588 213.201 82.6477C213.526 82.8333 213.905 82.9261 214.339 82.9261C214.621 82.9261 214.878 82.8864 215.11 82.8068C215.342 82.724 215.543 82.6013 215.712 82.4389C215.881 82.2765 216.01 82.076 216.099 81.8374L217.506 82.0909C217.394 82.5052 217.191 82.8681 216.9 83.1797C216.611 83.4879 216.248 83.7282 215.811 83.9006C215.377 84.0696 214.881 84.1541 214.324 84.1541ZM221.549 84.1491C220.932 84.1491 220.382 83.9917 219.898 83.6768C219.418 83.3587 219.04 82.9062 218.765 82.3196C218.493 81.7296 218.357 81.022 218.357 80.1967C218.357 79.3714 218.495 78.6655 218.77 78.0788C219.048 77.4922 219.429 77.0431 219.913 76.7315C220.397 76.42 220.946 76.2642 221.559 76.2642C222.033 76.2642 222.414 76.3438 222.702 76.5028C222.994 76.6586 223.219 76.8409 223.378 77.0497C223.541 77.2585 223.667 77.4425 223.756 77.6016H223.846V73.8182H225.332V84H223.88V82.8118H223.756C223.667 82.9742 223.537 83.1598 223.368 83.3686C223.203 83.5774 222.974 83.7597 222.682 83.9155C222.391 84.0713 222.013 84.1491 221.549 84.1491ZM221.877 82.8814C222.304 82.8814 222.666 82.7687 222.961 82.5433C223.259 82.3146 223.484 81.9981 223.637 81.5938C223.793 81.1894 223.87 80.7187 223.87 80.1818C223.87 79.6515 223.794 79.1875 223.642 78.7898C223.489 78.392 223.266 78.0821 222.971 77.8601C222.676 77.638 222.311 77.527 221.877 77.527C221.429 77.527 221.057 77.643 220.758 77.875C220.46 78.107 220.235 78.4235 220.082 78.8246C219.933 79.2256 219.858 79.678 219.858 80.1818C219.858 80.6922 219.935 81.1513 220.087 81.5589C220.24 81.9666 220.465 82.2898 220.763 82.5284C221.065 82.7637 221.436 82.8814 221.877 82.8814ZM233.255 84.1541C232.516 84.1541 231.88 83.9867 231.346 83.652C230.816 83.3139 230.408 82.8482 230.123 82.255C229.838 81.6617 229.696 80.9822 229.696 80.2166C229.696 79.4411 229.842 78.7566 230.133 78.1634C230.425 77.5668 230.836 77.1011 231.366 76.7663C231.897 76.4316 232.521 76.2642 233.241 76.2642C233.821 76.2642 234.338 76.3719 234.792 76.5874C235.246 76.7995 235.612 77.0978 235.89 77.4822C236.172 77.8667 236.339 78.3158 236.393 78.8295H234.946C234.866 78.4716 234.684 78.1634 234.399 77.9048C234.117 77.6463 233.739 77.517 233.265 77.517C232.851 77.517 232.488 77.6264 232.177 77.8452C231.868 78.0606 231.628 78.3688 231.456 78.7699C231.283 79.1676 231.197 79.6383 231.197 80.1818C231.197 80.7386 231.282 81.2192 231.451 81.6236C231.62 82.0279 231.858 82.3411 232.167 82.5632C232.478 82.7853 232.844 82.8963 233.265 82.8963C233.547 82.8963 233.802 82.8449 234.031 82.7422C234.263 82.6361 234.457 82.4853 234.613 82.2898C234.772 82.0942 234.883 81.8589 234.946 81.5838H236.393C236.339 82.0777 236.179 82.5185 235.91 82.9062C235.642 83.294 235.282 83.599 234.831 83.821C234.384 84.0431 233.859 84.1541 233.255 84.1541ZM239.644 84.169C239.161 84.169 238.723 84.0795 238.332 83.9006C237.941 83.7183 237.631 83.4548 237.402 83.1101C237.177 82.7654 237.064 82.3428 237.064 81.8423C237.064 81.4115 237.147 81.0568 237.313 80.7784C237.479 80.5 237.702 80.2796 237.984 80.1172C238.266 79.9548 238.581 79.8321 238.929 79.7493C239.277 79.6664 239.631 79.6035 239.992 79.5604C240.45 79.5073 240.821 79.4643 241.106 79.4311C241.391 79.3946 241.598 79.3366 241.728 79.2571C241.857 79.1776 241.921 79.0483 241.921 78.8693V78.8345C241.921 78.4003 241.799 78.0639 241.554 77.8253C241.312 77.5866 240.95 77.4673 240.47 77.4673C239.969 77.4673 239.575 77.5784 239.287 77.8004C239.001 78.0192 238.804 78.2628 238.695 78.5312L237.298 78.2131C237.464 77.7491 237.706 77.3745 238.024 77.0895C238.345 76.8011 238.715 76.5923 239.132 76.4631C239.55 76.3305 239.989 76.2642 240.45 76.2642C240.755 76.2642 241.078 76.3007 241.419 76.3736C241.764 76.4432 242.086 76.5724 242.384 76.7614C242.685 76.9503 242.932 77.2204 243.125 77.5717C243.317 77.9197 243.413 78.3722 243.413 78.929V84H241.961V82.956H241.902C241.805 83.1482 241.661 83.3371 241.469 83.5227C241.277 83.7083 241.03 83.8625 240.728 83.9851C240.427 84.1077 240.065 84.169 239.644 84.169ZM239.968 82.9759C240.379 82.9759 240.73 82.8946 241.022 82.7322C241.317 82.5698 241.54 82.3577 241.693 82.0959C241.849 81.8307 241.926 81.5473 241.926 81.2457V80.2614C241.873 80.3144 241.771 80.3641 241.618 80.4105C241.469 80.4536 241.298 80.4917 241.106 80.5249C240.914 80.5547 240.727 80.5829 240.544 80.6094C240.362 80.6326 240.21 80.6525 240.087 80.669C239.799 80.7055 239.535 80.7668 239.296 80.853C239.061 80.9392 238.872 81.0634 238.73 81.2259C238.591 81.3849 238.521 81.5971 238.521 81.8622C238.521 82.2301 238.657 82.5085 238.929 82.6974C239.2 82.883 239.547 82.9759 239.968 82.9759ZM244.833 84V76.3636H246.27V77.5767H246.349C246.488 77.1657 246.734 76.8426 247.085 76.6072C247.44 76.3686 247.841 76.2493 248.288 76.2493C248.381 76.2493 248.49 76.2526 248.616 76.2592C248.746 76.2659 248.847 76.2741 248.92 76.2841V77.706C248.86 77.6894 248.754 77.6712 248.601 77.6513C248.449 77.6281 248.296 77.6165 248.144 77.6165C247.793 77.6165 247.479 77.6911 247.204 77.8402C246.933 77.986 246.717 78.1899 246.558 78.4517C246.399 78.7102 246.319 79.0052 246.319 79.3366V84H244.833ZM252.664 84.1541C251.911 84.1541 251.263 83.9934 250.72 83.6719C250.18 83.3471 249.762 82.8913 249.467 82.3047C249.175 81.7147 249.029 81.0237 249.029 80.2315C249.029 79.4493 249.175 78.7599 249.467 78.1634C249.762 77.5668 250.173 77.1011 250.7 76.7663C251.23 76.4316 251.85 76.2642 252.559 76.2642C252.99 76.2642 253.408 76.3355 253.812 76.478C254.216 76.6205 254.579 76.8442 254.901 77.1491C255.222 77.4541 255.476 77.8501 255.662 78.3374C255.847 78.8213 255.94 79.4096 255.94 80.1023V80.6293H249.87V79.5156H254.483C254.483 79.1245 254.404 78.7782 254.245 78.4766C254.086 78.1716 253.862 77.9313 253.573 77.7557C253.288 77.58 252.954 77.4922 252.569 77.4922C252.152 77.4922 251.787 77.5949 251.475 77.8004C251.167 78.0026 250.929 78.2678 250.76 78.5959C250.594 78.9207 250.511 79.2737 250.511 79.6548V80.5249C250.511 81.0353 250.6 81.4695 250.779 81.8274C250.962 82.1854 251.215 82.4588 251.54 82.6477C251.865 82.8333 252.244 82.9261 252.679 82.9261C252.96 82.9261 253.217 82.8864 253.449 82.8068C253.681 82.724 253.882 82.6013 254.051 82.4389C254.22 82.2765 254.349 82.076 254.439 81.8374L255.846 82.0909C255.733 82.5052 255.531 82.8681 255.239 83.1797C254.951 83.4879 254.588 83.7282 254.15 83.9006C253.716 84.0696 253.221 84.1541 252.664 84.1541ZM258.963 82.608L258.889 83.1499C258.839 83.5476 258.754 83.9619 258.635 84.3928C258.519 84.8269 258.398 85.2296 258.272 85.6009C258.15 85.9721 258.048 86.267 257.969 86.4858H256.915C256.958 86.2803 257.018 86.0019 257.094 85.6506C257.17 85.3026 257.245 84.9131 257.318 84.4822C257.391 84.0514 257.445 83.6122 257.482 83.1648L257.531 82.608H258.963ZM266.447 84.1442C265.764 84.1442 265.176 84.0199 264.682 83.7713C264.191 83.5227 263.813 83.1847 263.548 82.7571C263.283 82.3262 263.15 81.839 263.15 81.2955C263.15 80.8812 263.237 80.5133 263.409 80.1918C263.581 79.867 263.822 79.567 264.13 79.2919C264.438 79.0168 264.794 78.7401 265.199 78.4616L266.839 77.3033C267.118 77.121 267.335 76.9287 267.491 76.7266C267.646 76.5211 267.724 76.2675 267.724 75.9659C267.724 75.7273 267.622 75.4986 267.416 75.2798C267.211 75.0611 266.935 74.9517 266.591 74.9517C266.352 74.9517 266.142 75.0097 265.959 75.1257C265.78 75.2417 265.64 75.3909 265.537 75.5732C265.437 75.7521 265.388 75.9411 265.388 76.1399C265.388 76.3719 265.451 76.6056 265.577 76.8409C265.706 77.0762 265.872 77.3198 266.074 77.5717C266.276 77.8203 266.488 78.0788 266.71 78.3473L271.438 84H269.758L265.845 79.4013C265.517 79.0135 265.212 78.6489 264.93 78.3075C264.649 77.9628 264.42 77.6148 264.244 77.2635C264.072 76.9089 263.986 76.526 263.986 76.1151C263.986 75.6477 264.092 75.2334 264.304 74.8722C264.519 74.5076 264.819 74.2225 265.204 74.017C265.588 73.8116 266.039 73.7088 266.556 73.7088C267.08 73.7088 267.529 73.8116 267.903 74.017C268.281 74.2192 268.571 74.4893 268.773 74.8274C268.979 75.1622 269.082 75.5284 269.082 75.9261C269.082 76.41 268.961 76.8376 268.719 77.2088C268.48 77.5767 268.15 77.9148 267.729 78.223L265.686 79.7294C265.288 80.0211 265.011 80.3094 264.856 80.5945C264.703 80.8762 264.627 81.0966 264.627 81.2557C264.627 81.5473 264.702 81.8175 264.851 82.0661C265.003 82.3146 265.215 82.5135 265.487 82.6626C265.762 82.8118 266.084 82.8864 266.452 82.8864C266.829 82.8864 267.197 82.8052 267.555 82.6428C267.917 82.477 268.243 82.2401 268.535 81.9318C268.83 81.6236 269.063 81.254 269.236 80.8232C269.408 80.3923 269.494 79.91 269.494 79.3764H270.836C270.836 80.0327 270.762 80.5878 270.613 81.0419C270.464 81.4927 270.283 81.8606 270.071 82.1456C269.862 82.4273 269.665 82.6477 269.479 82.8068C269.42 82.8598 269.363 82.9129 269.31 82.9659C269.257 83.0189 269.201 83.072 269.141 83.125C268.796 83.473 268.379 83.7299 267.888 83.8956C267.401 84.0613 266.921 84.1442 266.447 84.1442ZM182.837 97.8331V93.3636H184.328V101H182.866V99.6776H182.787C182.611 100.085 182.33 100.425 181.942 100.697C181.557 100.965 181.078 101.099 180.505 101.099C180.014 101.099 179.58 100.992 179.202 100.776C178.828 100.558 178.533 100.234 178.317 99.8068C178.105 99.3793 177.999 98.8506 177.999 98.2209V93.3636H179.486V98.0419C179.486 98.5623 179.63 98.9766 179.918 99.2848C180.207 99.593 180.581 99.7472 181.042 99.7472C181.32 99.7472 181.597 99.6776 181.872 99.5384C182.151 99.3991 182.381 99.1887 182.563 98.907C182.749 98.6252 182.84 98.2673 182.837 97.8331ZM187.252 96.4659V101H185.765V93.3636H187.192V94.6065H187.287C187.462 94.2022 187.738 93.8774 188.112 93.6321C188.49 93.3868 188.966 93.2642 189.539 93.2642C190.059 93.2642 190.515 93.3736 190.906 93.5923C191.297 93.8078 191.6 94.1293 191.816 94.5568C192.031 94.9844 192.139 95.513 192.139 96.1428V101H190.653V96.3217C190.653 95.7682 190.508 95.3357 190.22 95.0241C189.932 94.7093 189.536 94.5518 189.032 94.5518C188.687 94.5518 188.381 94.6264 188.112 94.7756C187.847 94.9247 187.636 95.1435 187.481 95.4318C187.328 95.7169 187.252 96.0616 187.252 96.4659ZM196.431 101.149C195.815 101.149 195.265 100.992 194.781 100.677C194.3 100.359 193.922 99.9062 193.647 99.3196C193.375 98.7296 193.24 98.022 193.24 97.1967C193.24 96.3714 193.377 95.6655 193.652 95.0788C193.931 94.4922 194.312 94.0431 194.796 93.7315C195.28 93.42 195.828 93.2642 196.441 93.2642C196.915 93.2642 197.296 93.3438 197.585 93.5028C197.876 93.6586 198.102 93.8409 198.261 94.0497C198.423 94.2585 198.549 94.4425 198.639 94.6016H198.728V90.8182H200.215V101H198.763V99.8118H198.639C198.549 99.9742 198.42 100.16 198.251 100.369C198.085 100.577 197.857 100.76 197.565 100.915C197.273 101.071 196.895 101.149 196.431 101.149ZM196.759 99.8814C197.187 99.8814 197.548 99.7687 197.843 99.5433C198.142 99.3146 198.367 98.9981 198.519 98.5938C198.675 98.1894 198.753 97.7187 198.753 97.1818C198.753 96.6515 198.677 96.1875 198.524 95.7898C198.372 95.392 198.148 95.0821 197.853 94.8601C197.558 94.638 197.194 94.527 196.759 94.527C196.312 94.527 195.939 94.643 195.641 94.875C195.343 95.107 195.117 95.4235 194.965 95.8246C194.816 96.2256 194.741 96.678 194.741 97.1818C194.741 97.6922 194.817 98.1513 194.97 98.5589C195.122 98.9666 195.348 99.2898 195.646 99.5284C195.947 99.7637 196.319 99.8814 196.759 99.8814ZM205.068 101.154C204.315 101.154 203.667 100.993 203.124 100.672C202.583 100.347 202.166 99.8913 201.871 99.3047C201.579 98.7147 201.433 98.0237 201.433 97.2315C201.433 96.4493 201.579 95.7599 201.871 95.1634C202.166 94.5668 202.577 94.1011 203.104 93.7663C203.634 93.4316 204.254 93.2642 204.963 93.2642C205.394 93.2642 205.812 93.3355 206.216 93.478C206.62 93.6205 206.983 93.8442 207.305 94.1491C207.626 94.4541 207.88 94.8501 208.065 95.3374C208.251 95.8213 208.344 96.4096 208.344 97.1023V97.6293H202.273V96.5156H206.887C206.887 96.1245 206.808 95.7782 206.648 95.4766C206.489 95.1716 206.266 94.9313 205.977 94.7557C205.692 94.58 205.358 94.4922 204.973 94.4922C204.555 94.4922 204.191 94.5949 203.879 94.8004C203.571 95.0026 203.332 95.2678 203.163 95.5959C202.998 95.9207 202.915 96.2737 202.915 96.6548V97.5249C202.915 98.0353 203.004 98.4695 203.183 98.8274C203.366 99.1854 203.619 99.4588 203.944 99.6477C204.269 99.8333 204.648 99.9261 205.082 99.9261C205.364 99.9261 205.621 99.8864 205.853 99.8068C206.085 99.724 206.286 99.6013 206.455 99.4389C206.624 99.2765 206.753 99.076 206.842 98.8374L208.249 99.0909C208.137 99.5052 207.934 99.8681 207.643 100.18C207.354 100.488 206.992 100.728 206.554 100.901C206.12 101.07 205.624 101.154 205.068 101.154ZM212.998 93.3636V94.5568H208.827V93.3636H212.998ZM209.945 91.5341H211.432V98.7578C211.432 99.0462 211.475 99.2633 211.561 99.4091C211.647 99.5516 211.758 99.6494 211.894 99.7024C212.033 99.7521 212.184 99.777 212.346 99.777C212.466 99.777 212.57 99.7687 212.66 99.7521C212.749 99.7356 212.819 99.7223 212.868 99.7124L213.137 100.94C213.051 100.973 212.928 101.007 212.769 101.04C212.61 101.076 212.411 101.096 212.172 101.099C211.781 101.106 211.417 101.036 211.079 100.891C210.741 100.745 210.467 100.519 210.258 100.214C210.05 99.9096 209.945 99.5268 209.945 99.0661V91.5341ZM217.291 101.154C216.539 101.154 215.891 100.993 215.347 100.672C214.807 100.347 214.39 99.8913 214.095 99.3047C213.803 98.7147 213.657 98.0237 213.657 97.2315C213.657 96.4493 213.803 95.7599 214.095 95.1634C214.39 94.5668 214.8 94.1011 215.327 93.7663C215.858 93.4316 216.478 93.2642 217.187 93.2642C217.618 93.2642 218.035 93.3355 218.44 93.478C218.844 93.6205 219.207 93.8442 219.528 94.1491C219.85 94.4541 220.104 94.8501 220.289 95.3374C220.475 95.8213 220.568 96.4096 220.568 97.1023V97.6293H214.497V96.5156H219.111C219.111 96.1245 219.031 95.7782 218.872 95.4766C218.713 95.1716 218.489 94.9313 218.201 94.7557C217.916 94.58 217.581 94.4922 217.197 94.4922C216.779 94.4922 216.415 94.5949 216.103 94.8004C215.795 95.0026 215.556 95.2678 215.387 95.5959C215.221 95.9207 215.139 96.2737 215.139 96.6548V97.5249C215.139 98.0353 215.228 98.4695 215.407 98.8274C215.589 99.1854 215.843 99.4588 216.168 99.6477C216.492 99.8333 216.872 99.9261 217.306 99.9261C217.588 99.9261 217.845 99.8864 218.077 99.8068C218.309 99.724 218.509 99.6013 218.678 99.4389C218.847 99.2765 218.977 99.076 219.066 98.8374L220.473 99.0909C220.36 99.5052 220.158 99.8681 219.867 100.18C219.578 100.488 219.215 100.728 218.778 100.901C218.344 101.07 217.848 101.154 217.291 101.154ZM224.873 101.154C224.134 101.154 223.498 100.987 222.964 100.652C222.434 100.314 222.026 99.8482 221.741 99.255C221.456 98.6617 221.314 97.9822 221.314 97.2166C221.314 96.4411 221.46 95.7566 221.751 95.1634C222.043 94.5668 222.454 94.1011 222.984 93.7663C223.515 93.4316 224.139 93.2642 224.859 93.2642C225.439 93.2642 225.956 93.3719 226.41 93.5874C226.864 93.7995 227.23 94.0978 227.508 94.4822C227.79 94.8667 227.958 95.3158 228.011 95.8295H226.564C226.484 95.4716 226.302 95.1634 226.017 94.9048C225.735 94.6463 225.357 94.517 224.883 94.517C224.469 94.517 224.106 94.6264 223.795 94.8452C223.486 95.0606 223.246 95.3688 223.074 95.7699C222.901 96.1676 222.815 96.6383 222.815 97.1818C222.815 97.7386 222.9 98.2192 223.069 98.6236C223.238 99.0279 223.476 99.3411 223.785 99.5632C224.096 99.7853 224.463 99.8963 224.883 99.8963C225.165 99.8963 225.42 99.8449 225.649 99.7422C225.881 99.6361 226.075 99.4853 226.231 99.2898C226.39 99.0942 226.501 98.8589 226.564 98.5838H228.011C227.958 99.0777 227.797 99.5185 227.528 99.9062C227.26 100.294 226.9 100.599 226.449 100.821C226.002 101.043 225.477 101.154 224.873 101.154ZM232.605 93.3636V94.5568H228.434V93.3636H232.605ZM229.552 91.5341H231.039V98.7578C231.039 99.0462 231.082 99.2633 231.168 99.4091C231.254 99.5516 231.365 99.6494 231.501 99.7024C231.64 99.7521 231.791 99.777 231.954 99.777C232.073 99.777 232.177 99.7687 232.267 99.7521C232.356 99.7356 232.426 99.7223 232.476 99.7124L232.744 100.94C232.658 100.973 232.535 101.007 232.376 101.04C232.217 101.076 232.018 101.096 231.78 101.099C231.388 101.106 231.024 101.036 230.686 100.891C230.348 100.745 230.074 100.519 229.866 100.214C229.657 99.9096 229.552 99.5268 229.552 99.0661V91.5341ZM236.898 101.154C236.146 101.154 235.498 100.993 234.954 100.672C234.414 100.347 233.997 99.8913 233.702 99.3047C233.41 98.7147 233.264 98.0237 233.264 97.2315C233.264 96.4493 233.41 95.7599 233.702 95.1634C233.997 94.5668 234.408 94.1011 234.935 93.7663C235.465 93.4316 236.085 93.2642 236.794 93.2642C237.225 93.2642 237.642 93.3355 238.047 93.478C238.451 93.6205 238.814 93.8442 239.136 94.1491C239.457 94.4541 239.711 94.8501 239.896 95.3374C240.082 95.8213 240.175 96.4096 240.175 97.1023V97.6293H234.104V96.5156H238.718C238.718 96.1245 238.638 95.7782 238.479 95.4766C238.32 95.1716 238.097 94.9313 237.808 94.7557C237.523 94.58 237.188 94.4922 236.804 94.4922C236.386 94.4922 236.022 94.5949 235.71 94.8004C235.402 95.0026 235.163 95.2678 234.994 95.5959C234.829 95.9207 234.746 96.2737 234.746 96.6548V97.5249C234.746 98.0353 234.835 98.4695 235.014 98.8274C235.196 99.1854 235.45 99.4588 235.775 99.6477C236.1 99.8333 236.479 99.9261 236.913 99.9261C237.195 99.9261 237.452 99.8864 237.684 99.8068C237.916 99.724 238.116 99.6013 238.285 99.4389C238.454 99.2765 238.584 99.076 238.673 98.8374L240.08 99.0909C239.968 99.5052 239.765 99.8681 239.474 100.18C239.185 100.488 238.822 100.728 238.385 100.901C237.951 101.07 237.455 101.154 236.898 101.154ZM244.123 101.149C243.506 101.149 242.956 100.992 242.472 100.677C241.991 100.359 241.614 99.9062 241.339 99.3196C241.067 98.7296 240.931 98.022 240.931 97.1967C240.931 96.3714 241.068 95.6655 241.344 95.0788C241.622 94.4922 242.003 94.0431 242.487 93.7315C242.971 93.42 243.519 93.2642 244.133 93.2642C244.607 93.2642 244.988 93.3438 245.276 93.5028C245.568 93.6586 245.793 93.8409 245.952 94.0497C246.115 94.2585 246.241 94.4425 246.33 94.6016H246.42V90.8182H247.906V101H246.454V99.8118H246.33C246.241 99.9742 246.111 100.16 245.942 100.369C245.777 100.577 245.548 100.76 245.256 100.915C244.964 101.071 244.587 101.149 244.123 101.149ZM244.451 99.8814C244.878 99.8814 245.24 99.7687 245.535 99.5433C245.833 99.3146 246.058 98.9981 246.211 98.5938C246.366 98.1894 246.444 97.7187 246.444 97.1818C246.444 96.6515 246.368 96.1875 246.216 95.7898C246.063 95.392 245.839 95.0821 245.545 94.8601C245.25 94.638 244.885 94.527 244.451 94.527C244.003 94.527 243.63 94.643 243.332 94.875C243.034 95.107 242.808 95.4235 242.656 95.8246C242.507 96.2256 242.432 96.678 242.432 97.1818C242.432 97.6922 242.509 98.1513 242.661 98.5589C242.813 98.9666 243.039 99.2898 243.337 99.5284C243.639 99.7637 244.01 99.8814 244.451 99.8814ZM252.613 101V93.3636H254.05V94.5767H254.129C254.268 94.1657 254.514 93.8426 254.865 93.6072C255.219 93.3686 255.621 93.2493 256.068 93.2493C256.161 93.2493 256.27 93.2526 256.396 93.2592C256.525 93.2659 256.626 93.2741 256.699 93.2841V94.706C256.64 94.6894 256.534 94.6712 256.381 94.6513C256.229 94.6281 256.076 94.6165 255.924 94.6165C255.572 94.6165 255.259 94.6911 254.984 94.8402C254.712 94.986 254.497 95.1899 254.338 95.4517C254.179 95.7102 254.099 96.0052 254.099 96.3366V101H252.613ZM257.426 101V93.3636H258.912V101H257.426ZM258.176 92.1854C257.918 92.1854 257.696 92.0992 257.51 91.9268C257.328 91.7512 257.237 91.5424 257.237 91.3004C257.237 91.0552 257.328 90.8464 257.51 90.674C257.696 90.4983 257.918 90.4105 258.176 90.4105C258.435 90.4105 258.655 90.4983 258.838 90.674C259.023 90.8464 259.116 91.0552 259.116 91.3004C259.116 91.5424 259.023 91.7512 258.838 91.9268C258.655 92.0992 258.435 92.1854 258.176 92.1854ZM266.074 95.228L264.727 95.4666C264.671 95.2943 264.581 95.1302 264.459 94.9744C264.339 94.8187 264.177 94.6911 263.971 94.5916C263.766 94.4922 263.509 94.4425 263.201 94.4425C262.78 94.4425 262.429 94.5369 262.147 94.7259C261.865 94.9115 261.724 95.1518 261.724 95.4467C261.724 95.7019 261.819 95.9074 262.008 96.0632C262.197 96.219 262.501 96.3466 262.922 96.446L264.135 96.7244C264.838 96.8868 265.362 97.1371 265.707 97.4751C266.051 97.8132 266.224 98.2524 266.224 98.7926C266.224 99.25 266.091 99.6577 265.826 100.016C265.564 100.37 265.198 100.649 264.727 100.851C264.26 101.053 263.718 101.154 263.101 101.154C262.246 101.154 261.549 100.972 261.008 100.607C260.468 100.239 260.137 99.7173 260.014 99.0412L261.451 98.8224C261.54 99.197 261.724 99.4804 262.003 99.6726C262.281 99.8615 262.644 99.956 263.091 99.956C263.579 99.956 263.968 99.8549 264.26 99.6527C264.551 99.4472 264.697 99.197 264.697 98.902C264.697 98.6634 264.608 98.4628 264.429 98.3004C264.253 98.138 263.983 98.0154 263.618 97.9325L262.326 97.6491C261.613 97.4867 261.086 97.2282 260.745 96.8736C260.407 96.5189 260.238 96.0698 260.238 95.5263C260.238 95.0755 260.364 94.6811 260.616 94.343C260.867 94.005 261.216 93.7415 261.66 93.5526C262.104 93.3603 262.613 93.2642 263.186 93.2642C264.011 93.2642 264.661 93.4432 265.135 93.8011C265.609 94.1558 265.922 94.6314 266.074 95.228ZM268.665 98.4098L268.655 96.5952H268.914L271.956 93.3636H273.736L270.266 97.0426H270.032L268.665 98.4098ZM267.298 101V90.8182H268.784V101H267.298ZM272.12 101L269.386 97.3707L270.41 96.3317L273.945 101H272.12ZM276.753 101.169C276.269 101.169 275.832 101.08 275.441 100.901C275.05 100.718 274.74 100.455 274.511 100.11C274.286 99.7654 274.173 99.3428 274.173 98.8423C274.173 98.4115 274.256 98.0568 274.422 97.7784C274.587 97.5 274.811 97.2796 275.093 97.1172C275.374 96.9548 275.689 96.8321 276.037 96.7493C276.385 96.6664 276.74 96.6035 277.101 96.5604C277.559 96.5073 277.93 96.4643 278.215 96.4311C278.5 96.3946 278.707 96.3366 278.836 96.2571C278.966 96.1776 279.03 96.0483 279.03 95.8693V95.8345C279.03 95.4003 278.908 95.0639 278.662 94.8253C278.42 94.5866 278.059 94.4673 277.579 94.4673C277.078 94.4673 276.684 94.5784 276.395 94.8004C276.11 95.0192 275.913 95.2628 275.804 95.5312L274.407 95.2131C274.572 94.7491 274.814 94.3745 275.132 94.0895C275.454 93.8011 275.824 93.5923 276.241 93.4631C276.659 93.3305 277.098 93.2642 277.559 93.2642C277.864 93.2642 278.187 93.3007 278.528 93.3736C278.873 93.4432 279.194 93.5724 279.493 93.7614C279.794 93.9503 280.041 94.2204 280.233 94.5717C280.426 94.9197 280.522 95.3722 280.522 95.929V101H279.07V99.956H279.01C278.914 100.148 278.77 100.337 278.578 100.523C278.386 100.708 278.139 100.862 277.837 100.985C277.535 101.108 277.174 101.169 276.753 101.169ZM277.076 99.9759C277.487 99.9759 277.839 99.8946 278.13 99.7322C278.425 99.5698 278.649 99.3577 278.802 99.0959C278.957 98.8307 279.035 98.5473 279.035 98.2457V97.2614C278.982 97.3144 278.879 97.3641 278.727 97.4105C278.578 97.4536 278.407 97.4917 278.215 97.5249C278.023 97.5547 277.835 97.5829 277.653 97.6094C277.471 97.6326 277.318 97.6525 277.196 97.669C276.907 97.7055 276.644 97.7668 276.405 97.853C276.17 97.9392 275.981 98.0634 275.838 98.2259C275.699 98.3849 275.63 98.5971 275.63 98.8622C275.63 99.2301 275.766 99.5085 276.037 99.6974C276.309 99.883 276.655 99.9759 277.076 99.9759ZM282.921 101.094C282.649 101.094 282.416 100.998 282.22 100.806C282.024 100.611 281.927 100.375 281.927 100.1C281.927 99.8284 282.024 99.5964 282.22 99.4041C282.416 99.2086 282.649 99.1108 282.921 99.1108C283.193 99.1108 283.426 99.2086 283.622 99.4041C283.818 99.5964 283.915 99.8284 283.915 100.1C283.915 100.282 283.869 100.45 283.776 100.602C283.687 100.751 283.567 100.871 283.418 100.96C283.269 101.05 283.103 101.094 282.921 101.094Z" fill="white" fill-opacity="0.7"/>
</g>
<circle cx="10" cy="60" r="10" fill="white" fill-opacity="0.8"/>
<circle cx="10" cy="60" r="5" fill="#0400FF"/>
<defs>
<filter id="filter0_d_34_1773" x="149" y="0" width="211" height="142" filterUnits="userSpaceOnUse" color-interpolation-filters="sRGB">
<feFlood flood-opacity="0" result="BackgroundImageFix"/>
<feColorMatrix in="SourceAlpha" type="matrix" values="0 0 0 0 0 0 0 0 0 0 0 0 0 0 0 0 0 0 127 0" result="hardAlpha"/>
<feOffset dy="13"/>
<feGaussianBlur stdDeviation="5"/>
<feComposite in2="hardAlpha" operator="out"/>
<feColorMatrix type="matrix" values="0 0 0 0 0 0 0 0 0 0 0 0 0 0 0 0 0 0 0.05 0"/>
<feBlend mode="normal" in2="BackgroundImageFix" result="effect1_dropShadow_34_1773"/>
<feBlend mode="normal" in="SourceGraphic" in2="effect1_dropShadow_34_1773" result="shape"/>
</filter>
</defs>
</svg>
