<svg width="13" height="13" viewBox="0 0 13 13" fill="none" xmlns="http://www.w3.org/2000/svg">
<path d="M5.38548 0.489748C5.6271 -0.163216 6.55064 -0.163217 6.79226 0.489747L7.99487 3.73976C8.07083 3.94504 8.23269 4.1069 8.43798 4.18287L11.688 5.38548C12.341 5.6271 12.341 6.55064 11.688 6.79226L8.43798 7.99487C8.23269 8.07083 8.07083 8.23269 7.99487 8.43798L6.79226 11.688C6.55064 12.341 5.6271 12.341 5.38548 11.688L4.18287 8.43798C4.1069 8.23269 3.94504 8.07083 3.73976 7.99487L0.489748 6.79226C-0.163216 6.55064 -0.163217 5.6271 0.489747 5.38548L3.73976 4.18287C3.94504 4.1069 4.1069 3.94504 4.18287 3.73976L5.38548 0.489748Z" fill="#0400FF"/>
</svg>
