<svg width="403" height="108" viewBox="0 0 403 108" fill="none" xmlns="http://www.w3.org/2000/svg">
<line x1="189.5" y1="42.5" x2="392.5" y2="42.5" stroke="black" stroke-opacity="0.18" stroke-linecap="round" stroke-dasharray="6 6"/>
<g filter="url(#filter0_d_34_1772)">
<rect x="10" width="191" height="85" rx="10" fill="white"/>
<rect x="10.5" y="0.5" width="190" height="84" rx="9.5" stroke="#A0A0A0" stroke-opacity="0.36"/>
<path d="M30.8 25L27.96 18H29.53L31.67 23.51L33.86 18H35.36L32.48 25H30.8ZM35.9542 25V18H37.4042V25H35.9542ZM41.1788 25.1C40.6122 25.1 40.0588 24.9967 39.5188 24.79C38.9788 24.5767 38.4988 24.2767 38.0788 23.89L38.9088 22.85C39.3155 23.21 39.7055 23.47 40.0788 23.63C40.4588 23.79 40.8588 23.87 41.2788 23.87C41.5722 23.87 41.8255 23.8367 42.0388 23.77C42.2522 23.6967 42.4155 23.5933 42.5288 23.46C42.6488 23.3267 42.7088 23.17 42.7088 22.99C42.7088 22.75 42.6222 22.5667 42.4488 22.44C42.2755 22.3067 41.9788 22.2033 41.5588 22.13L40.1688 21.89C39.5755 21.79 39.1222 21.58 38.8088 21.26C38.5022 20.94 38.3488 20.5267 38.3488 20.02C38.3488 19.5867 38.4588 19.21 38.6788 18.89C38.9055 18.57 39.2222 18.3267 39.6288 18.16C40.0422 17.9867 40.5322 17.9 41.0988 17.9C41.6122 17.9 42.1222 17.9867 42.6288 18.16C43.1422 18.3333 43.5955 18.5733 43.9888 18.88L43.2088 19.96C42.4755 19.4 41.7388 19.12 40.9988 19.12C40.7388 19.12 40.5122 19.1533 40.3188 19.22C40.1255 19.2867 39.9755 19.38 39.8688 19.5C39.7688 19.6133 39.7188 19.75 39.7188 19.91C39.7188 20.1233 39.7955 20.29 39.9488 20.41C40.1022 20.5233 40.3588 20.61 40.7188 20.67L42.0388 20.89C42.7388 21.0033 43.2622 21.2267 43.6088 21.56C43.9555 21.8867 44.1288 22.32 44.1288 22.86C44.1288 23.3133 44.0088 23.71 43.7688 24.05C43.5288 24.3833 43.1855 24.6433 42.7388 24.83C42.2988 25.01 41.7788 25.1 41.1788 25.1ZM44.9874 25V18H46.4374V25H44.9874ZM47.712 25V18H51.002C51.4754 18 51.8887 18.08 52.242 18.24C52.5954 18.4 52.872 18.6267 53.072 18.92C53.272 19.2067 53.372 19.54 53.372 19.92C53.372 20.2267 53.292 20.51 53.132 20.77C52.9787 21.0233 52.7687 21.23 52.502 21.39C52.842 21.55 53.112 21.7667 53.312 22.04C53.512 22.3133 53.612 22.6233 53.612 22.97C53.612 23.37 53.5087 23.7233 53.302 24.03C53.102 24.3367 52.8154 24.5767 52.442 24.75C52.0754 24.9167 51.6487 25 51.162 25H47.712ZM49.162 20.86H50.912C51.2254 20.86 51.472 20.7867 51.652 20.64C51.8387 20.4867 51.932 20.2833 51.932 20.03C51.932 19.7767 51.8387 19.5767 51.652 19.43C51.472 19.2767 51.2254 19.2 50.912 19.2H49.162V20.86ZM49.162 23.8H51.052C51.3854 23.8 51.652 23.72 51.852 23.56C52.052 23.3933 52.152 23.1733 52.152 22.9C52.152 22.62 52.052 22.4 51.852 22.24C51.652 22.0733 51.3854 21.99 51.052 21.99H49.162V23.8ZM54.6261 25V18H56.0761V23.72H59.9061V25H54.6261ZM60.9054 25V18H66.2854V19.26H62.3554V20.86H64.9454V22.08H62.3554V23.74H66.3254V25H60.9054ZM71.2724 25V19.28H68.9124V18H75.0724V19.28H72.7224V25H71.2724ZM75.8859 25V18H77.3359V25H75.8859ZM78.6105 25V18H82.1205C82.5805 18 82.9838 18.0933 83.3305 18.28C83.6838 18.4667 83.9605 18.7267 84.1605 19.06C84.3605 19.3867 84.4605 19.7667 84.4605 20.2C84.4605 20.6133 84.3605 20.9833 84.1605 21.31C83.9605 21.6367 83.6838 21.8933 83.3305 22.08C82.9771 22.2667 82.5738 22.36 82.1205 22.36H80.0605V25H78.6105ZM80.0605 21.16H81.9605C82.2738 21.16 82.5238 21.0733 82.7105 20.9C82.9038 20.7267 83.0005 20.4967 83.0005 20.21C83.0005 19.9167 82.9038 19.6833 82.7105 19.51C82.5238 19.3367 82.2738 19.25 81.9605 19.25H80.0605V21.16Z" fill="#4167FF"/>
<path d="M29.1186 50V39.8182H30.6548V44.2429H35.7308V39.8182H37.272V50H35.7308V45.5604H30.6548V50H29.1186ZM42.0465 50.1541C41.3306 50.1541 40.7059 49.9901 40.1722 49.6619C39.6386 49.3338 39.2243 48.8748 38.9293 48.2848C38.6344 47.6948 38.4869 47.0054 38.4869 46.2166C38.4869 45.4245 38.6344 44.7318 38.9293 44.1385C39.2243 43.5452 39.6386 43.0845 40.1722 42.7564C40.7059 42.4283 41.3306 42.2642 42.0465 42.2642C42.7624 42.2642 43.3872 42.4283 43.9208 42.7564C44.4544 43.0845 44.8687 43.5452 45.1637 44.1385C45.4587 44.7318 45.6062 45.4245 45.6062 46.2166C45.6062 47.0054 45.4587 47.6948 45.1637 48.2848C44.8687 48.8748 44.4544 49.3338 43.9208 49.6619C43.3872 49.9901 42.7624 50.1541 42.0465 50.1541ZM42.0515 48.9062C42.5155 48.9062 42.9 48.7836 43.2049 48.5384C43.5098 48.2931 43.7352 47.9666 43.8811 47.5589C44.0302 47.1513 44.1048 46.7022 44.1048 46.2116C44.1048 45.7244 44.0302 45.277 43.8811 44.8693C43.7352 44.4583 43.5098 44.1286 43.2049 43.88C42.9 43.6314 42.5155 43.5071 42.0515 43.5071C41.5842 43.5071 41.1964 43.6314 40.8882 43.88C40.5832 44.1286 40.3562 44.4583 40.207 44.8693C40.0612 45.277 39.9883 45.7244 39.9883 46.2116C39.9883 46.7022 40.0612 47.1513 40.207 47.5589C40.3562 47.9666 40.5832 48.2931 40.8882 48.5384C41.1964 48.7836 41.5842 48.9062 42.0515 48.9062ZM52.4278 44.228L51.0805 44.4666C51.0241 44.2943 50.9346 44.1302 50.812 43.9744C50.6927 43.8187 50.5303 43.6911 50.3248 43.5916C50.1193 43.4922 49.8624 43.4425 49.5542 43.4425C49.1333 43.4425 48.7819 43.5369 48.5002 43.7259C48.2185 43.9115 48.0776 44.1518 48.0776 44.4467C48.0776 44.7019 48.1721 44.9074 48.361 45.0632C48.5499 45.219 48.8548 45.3466 49.2758 45.446L50.4888 45.7244C51.1915 45.8868 51.7152 46.1371 52.0599 46.4751C52.4046 46.8132 52.5769 47.2524 52.5769 47.7926C52.5769 48.25 52.4443 48.6577 52.1792 49.0156C51.9173 49.3703 51.5511 49.6487 51.0805 49.8509C50.6131 50.053 50.0712 50.1541 49.4548 50.1541C48.5996 50.1541 47.902 49.9718 47.3617 49.6072C46.8215 49.2393 46.49 48.7173 46.3674 48.0412L47.8042 47.8224C47.8937 48.197 48.0776 48.4804 48.356 48.6726C48.6344 48.8615 48.9974 48.956 49.4448 48.956C49.932 48.956 50.3215 48.8549 50.6131 48.6527C50.9048 48.4472 51.0506 48.197 51.0506 47.902C51.0506 47.6634 50.9611 47.4628 50.7822 47.3004C50.6065 47.138 50.3364 47.0154 49.9718 46.9325L48.6792 46.6491C47.9666 46.4867 47.4396 46.2282 47.0982 45.8736C46.7601 45.5189 46.5911 45.0698 46.5911 44.5263C46.5911 44.0755 46.7171 43.6811 46.969 43.343C47.2208 43.005 47.5689 42.7415 48.013 42.5526C48.4571 42.3603 48.9659 42.2642 49.5393 42.2642C50.3646 42.2642 51.0142 42.4432 51.4881 42.8011C51.9621 43.1558 52.2753 43.6314 52.4278 44.228ZM53.6513 52.8636V42.3636H55.103V43.6016H55.2273C55.3135 43.4425 55.4378 43.2585 55.6002 43.0497C55.7626 42.8409 55.988 42.6586 56.2763 42.5028C56.5647 42.3438 56.9458 42.2642 57.4198 42.2642C58.0363 42.2642 58.5865 42.42 59.0704 42.7315C59.5543 43.0431 59.9338 43.4922 60.2088 44.0788C60.4873 44.6655 60.6265 45.3714 60.6265 46.1967C60.6265 47.022 60.4889 47.7296 60.2138 48.3196C59.9387 48.9062 59.5609 49.3587 59.0803 49.6768C58.5997 49.9917 58.0512 50.1491 57.4347 50.1491C56.9707 50.1491 56.5912 50.0713 56.2962 49.9155C56.0045 49.7597 55.7758 49.5774 55.6101 49.3686C55.4444 49.1598 55.3168 48.9742 55.2273 48.8118H55.1378V52.8636H53.6513ZM55.108 46.1818C55.108 46.7187 55.1859 47.1894 55.3417 47.5938C55.4974 47.9981 55.7228 48.3146 56.0178 48.5433C56.3128 48.7687 56.674 48.8814 57.1016 48.8814C57.5457 48.8814 57.9169 48.7637 58.2152 48.5284C58.5135 48.2898 58.7389 47.9666 58.8914 47.5589C59.0472 47.1513 59.125 46.6922 59.125 46.1818C59.125 45.678 59.0488 45.2256 58.8963 44.8246C58.7472 44.4235 58.5218 44.107 58.2202 43.875C57.9219 43.643 57.549 43.527 57.1016 43.527C56.6707 43.527 56.3062 43.638 56.0079 43.8601C55.7129 44.0821 55.4892 44.392 55.3367 44.7898C55.1842 45.1875 55.108 45.6515 55.108 46.1818ZM61.7319 50V42.3636H63.2185V50H61.7319ZM62.4827 41.1854C62.2241 41.1854 62.0021 41.0992 61.8165 40.9268C61.6342 40.7512 61.543 40.5424 61.543 40.3004C61.543 40.0552 61.6342 39.8464 61.8165 39.674C62.0021 39.4983 62.2241 39.4105 62.4827 39.4105C62.7412 39.4105 62.9616 39.4983 63.1439 39.674C63.3295 39.8464 63.4223 40.0552 63.4223 40.3004C63.4223 40.5424 63.3295 40.7512 63.1439 40.9268C62.9616 41.0992 62.7412 41.1854 62.4827 41.1854ZM68.2229 42.3636V43.5568H64.0517V42.3636H68.2229ZM65.1703 40.5341H66.6569V47.7578C66.6569 48.0462 66.6999 48.2633 66.7861 48.4091C66.8723 48.5516 66.9833 48.6494 67.1192 48.7024C67.2584 48.7521 67.4092 48.777 67.5716 48.777C67.6909 48.777 67.7953 48.7687 67.8848 48.7521C67.9743 48.7356 68.0439 48.7223 68.0936 48.7124L68.3621 49.9403C68.2759 49.9735 68.1533 50.0066 67.9942 50.0398C67.8351 50.0762 67.6363 50.0961 67.3976 50.0994C67.0065 50.1061 66.6419 50.0365 66.3039 49.8906C65.9658 49.7448 65.6924 49.5194 65.4836 49.2145C65.2748 48.9096 65.1703 48.5268 65.1703 48.0661V40.5341ZM71.5296 50.169C71.0457 50.169 70.6082 50.0795 70.2171 49.9006C69.826 49.7183 69.5161 49.4548 69.2874 49.1101C69.062 48.7654 68.9493 48.3428 68.9493 47.8423C68.9493 47.4115 69.0322 47.0568 69.1979 46.7784C69.3636 46.5 69.5873 46.2796 69.869 46.1172C70.1508 45.9548 70.4656 45.8321 70.8137 45.7493C71.1617 45.6664 71.5163 45.6035 71.8776 45.5604C72.335 45.5073 72.7062 45.4643 72.9912 45.4311C73.2762 45.3946 73.4834 45.3366 73.6127 45.2571C73.7419 45.1776 73.8065 45.0483 73.8065 44.8693V44.8345C73.8065 44.4003 73.6839 44.0639 73.4387 43.8253C73.1967 43.5866 72.8354 43.4673 72.3548 43.4673C71.8544 43.4673 71.46 43.5784 71.1716 43.8004C70.8866 44.0192 70.6894 44.2628 70.58 44.5312L69.183 44.2131C69.3487 43.7491 69.5906 43.3745 69.9088 43.0895C70.2303 42.8011 70.5999 42.5923 71.0175 42.4631C71.4351 42.3305 71.8743 42.2642 72.335 42.2642C72.6399 42.2642 72.963 42.3007 73.3044 42.3736C73.6491 42.4432 73.9706 42.5724 74.2689 42.7614C74.5705 42.9503 74.8174 43.2204 75.0097 43.5717C75.2019 43.9197 75.298 44.3722 75.298 44.929V50H73.8463V48.956H73.7867C73.6905 49.1482 73.5464 49.3371 73.3541 49.5227C73.1619 49.7083 72.915 49.8625 72.6134 49.9851C72.3118 50.1077 71.9505 50.169 71.5296 50.169ZM71.8527 48.9759C72.2637 48.9759 72.615 48.8946 72.9067 48.7322C73.2017 48.5698 73.4254 48.3577 73.5779 48.0959C73.7336 47.8307 73.8115 47.5473 73.8115 47.2457V46.2614C73.7585 46.3144 73.6557 46.3641 73.5033 46.4105C73.3541 46.4536 73.1834 46.4917 72.9912 46.5249C72.799 46.5547 72.6117 46.5829 72.4294 46.6094C72.2471 46.6326 72.0947 46.6525 71.972 46.669C71.6837 46.7055 71.4202 46.7668 71.1815 46.853C70.9462 46.9392 70.7573 47.0634 70.6148 47.2259C70.4756 47.3849 70.406 47.5971 70.406 47.8622C70.406 48.2301 70.5419 48.5085 70.8137 48.6974C71.0854 48.883 71.4318 48.9759 71.8527 48.9759ZM78.2045 39.8182V50H76.718V39.8182H78.2045ZM79.6443 50V42.3636H81.1308V50H79.6443ZM80.395 41.1854C80.1365 41.1854 79.9144 41.0992 79.7288 40.9268C79.5465 40.7512 79.4554 40.5424 79.4554 40.3004C79.4554 40.0552 79.5465 39.8464 79.7288 39.674C79.9144 39.4983 80.1365 39.4105 80.395 39.4105C80.6535 39.4105 80.8739 39.4983 81.0562 39.674C81.2418 39.8464 81.3346 40.0552 81.3346 40.3004C81.3346 40.5424 81.2418 40.7512 81.0562 40.9268C80.8739 41.0992 80.6535 41.1854 80.395 41.1854ZM88.2929 44.228L86.9456 44.4666C86.8893 44.2943 86.7998 44.1302 86.6772 43.9744C86.5578 43.8187 86.3954 43.6911 86.1899 43.5916C85.9844 43.4922 85.7276 43.4425 85.4193 43.4425C84.9984 43.4425 84.6471 43.5369 84.3654 43.7259C84.0836 43.9115 83.9428 44.1518 83.9428 44.4467C83.9428 44.7019 84.0372 44.9074 84.2262 45.0632C84.4151 45.219 84.72 45.3466 85.1409 45.446L86.354 45.7244C87.0566 45.8868 87.5803 46.1371 87.925 46.4751C88.2697 46.8132 88.4421 47.2524 88.4421 47.7926C88.4421 48.25 88.3095 48.6577 88.0443 49.0156C87.7825 49.3703 87.4163 49.6487 86.9456 49.8509C86.4783 50.053 85.9364 50.1541 85.3199 50.1541C84.4648 50.1541 83.7671 49.9718 83.2269 49.6072C82.6866 49.2393 82.3552 48.7173 82.2325 48.0412L83.6693 47.8224C83.7588 48.197 83.9428 48.4804 84.2212 48.6726C84.4996 48.8615 84.8625 48.956 85.31 48.956C85.7972 48.956 86.1866 48.8549 86.4783 48.6527C86.77 48.4472 86.9158 48.197 86.9158 47.902C86.9158 47.6634 86.8263 47.4628 86.6473 47.3004C86.4717 47.138 86.2015 47.0154 85.837 46.9325L84.5443 46.6491C83.8317 46.4867 83.3048 46.2282 82.9634 45.8736C82.6253 45.5189 82.4563 45.0698 82.4563 44.5263C82.4563 44.0755 82.5822 43.6811 82.8341 43.343C83.086 43.005 83.434 42.7415 83.8781 42.5526C84.3223 42.3603 84.831 42.2642 85.4044 42.2642C86.2297 42.2642 86.8793 42.4432 87.3533 42.8011C87.8272 43.1558 88.1405 43.6314 88.2929 44.228ZM91.7388 50.169C91.2549 50.169 90.8174 50.0795 90.4263 49.9006C90.0352 49.7183 89.7253 49.4548 89.4966 49.1101C89.2712 48.7654 89.1585 48.3428 89.1585 47.8423C89.1585 47.4115 89.2414 47.0568 89.4071 46.7784C89.5728 46.5 89.7965 46.2796 90.0783 46.1172C90.36 45.9548 90.6749 45.8321 91.0229 45.7493C91.3709 45.6664 91.7255 45.6035 92.0868 45.5604C92.5442 45.5073 92.9154 45.4643 93.2004 45.4311C93.4855 45.3946 93.6926 45.3366 93.8219 45.2571C93.9511 45.1776 94.0158 45.0483 94.0158 44.8693V44.8345C94.0158 44.4003 93.8931 44.0639 93.6479 43.8253C93.4059 43.5866 93.0447 43.4673 92.5641 43.4673C92.0636 43.4673 91.6692 43.5784 91.3808 43.8004C91.0958 44.0192 90.8986 44.2628 90.7892 44.5312L89.3922 44.2131C89.5579 43.7491 89.7999 43.3745 90.118 43.0895C90.4395 42.8011 90.8091 42.5923 91.2267 42.4631C91.6443 42.3305 92.0835 42.2642 92.5442 42.2642C92.8491 42.2642 93.1723 42.3007 93.5136 42.3736C93.8583 42.4432 94.1798 42.5724 94.4781 42.7614C94.7797 42.9503 95.0267 43.2204 95.2189 43.5717C95.4111 43.9197 95.5072 44.3722 95.5072 44.929V50H94.0555V48.956H93.9959C93.8998 49.1482 93.7556 49.3371 93.5634 49.5227C93.3711 49.7083 93.1242 49.8625 92.8226 49.9851C92.521 50.1077 92.1597 50.169 91.7388 50.169ZM92.0619 48.9759C92.4729 48.9759 92.8242 48.8946 93.1159 48.7322C93.4109 48.5698 93.6346 48.3577 93.7871 48.0959C93.9429 47.8307 94.0207 47.5473 94.0207 47.2457V46.2614C93.9677 46.3144 93.865 46.3641 93.7125 46.4105C93.5634 46.4536 93.3927 46.4917 93.2004 46.5249C93.0082 46.5547 92.8209 46.5829 92.6386 46.6094C92.4563 46.6326 92.3039 46.6525 92.1813 46.669C91.8929 46.7055 91.6294 46.7668 91.3908 46.853C91.1554 46.9392 90.9665 47.0634 90.824 47.2259C90.6848 47.3849 90.6152 47.5971 90.6152 47.8622C90.6152 48.2301 90.7511 48.5085 91.0229 48.6974C91.2947 48.883 91.641 48.9759 92.0619 48.9759ZM100.492 42.3636V43.5568H96.3206V42.3636H100.492ZM97.4393 40.5341H98.9258V47.7578C98.9258 48.0462 98.9688 48.2633 99.055 48.4091C99.1412 48.5516 99.2522 48.6494 99.3881 48.7024C99.5273 48.7521 99.6781 48.777 99.8405 48.777C99.9598 48.777 100.064 48.7687 100.154 48.7521C100.243 48.7356 100.313 48.7223 100.363 48.7124L100.631 49.9403C100.545 49.9735 100.422 50.0066 100.263 50.0398C100.104 50.0762 99.9052 50.0961 99.6665 50.0994C99.2754 50.1061 98.9108 50.0365 98.5728 49.8906C98.2347 49.7448 97.9613 49.5194 97.7525 49.2145C97.5437 48.9096 97.4393 48.5268 97.4393 48.0661V40.5341ZM101.576 50V42.3636H103.063V50H101.576ZM102.327 41.1854C102.068 41.1854 101.846 41.0992 101.661 40.9268C101.478 40.7512 101.387 40.5424 101.387 40.3004C101.387 40.0552 101.478 39.8464 101.661 39.674C101.846 39.4983 102.068 39.4105 102.327 39.4105C102.585 39.4105 102.806 39.4983 102.988 39.674C103.174 39.8464 103.267 40.0552 103.267 40.3004C103.267 40.5424 103.174 40.7512 102.988 40.9268C102.806 41.0992 102.585 41.1854 102.327 41.1854ZM107.719 50.1541C107.003 50.1541 106.378 49.9901 105.845 49.6619C105.311 49.3338 104.897 48.8748 104.602 48.2848C104.307 47.6948 104.159 47.0054 104.159 46.2166C104.159 45.4245 104.307 44.7318 104.602 44.1385C104.897 43.5452 105.311 43.0845 105.845 42.7564C106.378 42.4283 107.003 42.2642 107.719 42.2642C108.435 42.2642 109.06 42.4283 109.593 42.7564C110.127 43.0845 110.541 43.5452 110.836 44.1385C111.131 44.7318 111.279 45.4245 111.279 46.2166C111.279 47.0054 111.131 47.6948 110.836 48.2848C110.541 48.8748 110.127 49.3338 109.593 49.6619C109.06 49.9901 108.435 50.1541 107.719 50.1541ZM107.724 48.9062C108.188 48.9062 108.573 48.7836 108.877 48.5384C109.182 48.2931 109.408 47.9666 109.554 47.5589C109.703 47.1513 109.777 46.7022 109.777 46.2116C109.777 45.7244 109.703 45.277 109.554 44.8693C109.408 44.4583 109.182 44.1286 108.877 43.88C108.573 43.6314 108.188 43.5071 107.724 43.5071C107.257 43.5071 106.869 43.6314 106.561 43.88C106.256 44.1286 106.029 44.4583 105.88 44.8693C105.734 45.277 105.661 45.7244 105.661 46.2116C105.661 46.7022 105.734 47.1513 105.88 47.5589C106.029 47.9666 106.256 48.2931 106.561 48.5384C106.869 48.7836 107.257 48.9062 107.724 48.9062ZM113.865 45.4659V50H112.378V42.3636H113.805V43.6065H113.899C114.075 43.2022 114.35 42.8774 114.725 42.6321C115.102 42.3868 115.578 42.2642 116.151 42.2642C116.672 42.2642 117.128 42.3736 117.519 42.5923C117.91 42.8078 118.213 43.1293 118.428 43.5568C118.644 43.9844 118.752 44.513 118.752 45.1428V50H117.265V45.3217C117.265 44.7682 117.121 44.3357 116.833 44.0241C116.544 43.7093 116.148 43.5518 115.644 43.5518C115.3 43.5518 114.993 43.6264 114.725 43.7756C114.459 43.9247 114.249 44.1435 114.093 44.4318C113.941 44.7169 113.865 45.0616 113.865 45.4659ZM122.119 48.608L122.045 49.1499C121.995 49.5476 121.91 49.9619 121.791 50.3928C121.675 50.8269 121.554 51.2296 121.428 51.6009C121.305 51.9721 121.204 52.267 121.125 52.4858H120.071C120.114 52.2803 120.174 52.0019 120.25 51.6506C120.326 51.3026 120.401 50.9131 120.474 50.4822C120.546 50.0514 120.601 49.6122 120.638 49.1648L120.687 48.608H122.119ZM132.362 44.228L131.014 44.4666C130.958 44.2943 130.869 44.1302 130.746 43.9744C130.627 43.8187 130.464 43.6911 130.259 43.5916C130.053 43.4922 129.796 43.4425 129.488 43.4425C129.067 43.4425 128.716 43.5369 128.434 43.7259C128.152 43.9115 128.012 44.1518 128.012 44.4467C128.012 44.7019 128.106 44.9074 128.295 45.0632C128.484 45.219 128.789 45.3466 129.21 45.446L130.423 45.7244C131.125 45.8868 131.649 46.1371 131.994 46.4751C132.339 46.8132 132.511 47.2524 132.511 47.7926C132.511 48.25 132.378 48.6577 132.113 49.0156C131.851 49.3703 131.485 49.6487 131.014 49.8509C130.547 50.053 130.005 50.1541 129.389 50.1541C128.534 50.1541 127.836 49.9718 127.296 49.6072C126.755 49.2393 126.424 48.7173 126.301 48.0412L127.738 47.8224C127.828 48.197 128.012 48.4804 128.29 48.6726C128.568 48.8615 128.931 48.956 129.379 48.956C129.866 48.956 130.255 48.8549 130.547 48.6527C130.839 48.4472 130.985 48.197 130.985 47.902C130.985 47.6634 130.895 47.4628 130.716 47.3004C130.54 47.138 130.27 47.0154 129.906 46.9325L128.613 46.6491C127.901 46.4867 127.374 46.2282 127.032 45.8736C126.694 45.5189 126.525 45.0698 126.525 44.5263C126.525 44.0755 126.651 43.6811 126.903 43.343C127.155 43.005 127.503 42.7415 127.947 42.5526C128.391 42.3603 128.9 42.2642 129.473 42.2642C130.299 42.2642 130.948 42.4432 131.422 42.8011C131.896 43.1558 132.209 43.6314 132.362 44.228ZM138.423 46.8331V42.3636H139.914V50H138.452V48.6776H138.373C138.197 49.0852 137.916 49.425 137.528 49.6967C137.143 49.9652 136.664 50.0994 136.091 50.0994C135.6 50.0994 135.166 49.9917 134.788 49.7763C134.414 49.5575 134.119 49.2344 133.903 48.8068C133.691 48.3793 133.585 47.8506 133.585 47.2209V42.3636H135.072V47.0419C135.072 47.5623 135.216 47.9766 135.504 48.2848C135.793 48.593 136.167 48.7472 136.628 48.7472C136.906 48.7472 137.183 48.6776 137.458 48.5384C137.737 48.3991 137.967 48.1887 138.149 47.907C138.335 47.6252 138.426 47.2673 138.423 46.8331ZM141.351 50V42.3636H142.788V43.5767H142.868C143.007 43.1657 143.252 42.8426 143.604 42.6072C143.958 42.3686 144.359 42.2493 144.807 42.2493C144.9 42.2493 145.009 42.2526 145.135 42.2592C145.264 42.2659 145.365 42.2741 145.438 42.2841V43.706C145.378 43.6894 145.272 43.6712 145.12 43.6513C144.967 43.6281 144.815 43.6165 144.663 43.6165C144.311 43.6165 143.998 43.6911 143.723 43.8402C143.451 43.986 143.236 44.1899 143.077 44.4517C142.918 44.7102 142.838 45.0052 142.838 45.3366V50H141.351ZM149.093 53.0227C148.486 53.0227 147.964 52.9432 147.527 52.7841C147.093 52.625 146.738 52.4145 146.463 52.1527C146.188 51.8909 145.982 51.6042 145.846 51.2926L147.124 50.7656C147.214 50.9115 147.333 51.0656 147.482 51.228C147.634 51.3937 147.84 51.5346 148.098 51.6506C148.36 51.7666 148.697 51.8246 149.108 51.8246C149.671 51.8246 150.137 51.687 150.505 51.4119C150.873 51.1402 151.057 50.706 151.057 50.1094V48.608H150.962C150.873 48.7704 150.743 48.951 150.574 49.1499C150.409 49.3487 150.18 49.5211 149.888 49.6669C149.597 49.8127 149.217 49.8857 148.75 49.8857C148.147 49.8857 147.603 49.7448 147.119 49.4631C146.638 49.178 146.257 48.7588 145.976 48.2053C145.697 47.6484 145.558 46.964 145.558 46.152C145.558 45.34 145.696 44.6439 145.971 44.0639C146.249 43.4839 146.63 43.0398 147.114 42.7315C147.598 42.42 148.147 42.2642 148.76 42.2642C149.234 42.2642 149.616 42.3438 149.908 42.5028C150.2 42.6586 150.427 42.8409 150.589 43.0497C150.755 43.2585 150.883 43.4425 150.972 43.6016H151.081V42.3636H152.538V50.169C152.538 50.8253 152.386 51.3639 152.081 51.7848C151.776 52.2057 151.363 52.5173 150.843 52.7195C150.326 52.9216 149.742 53.0227 149.093 53.0227ZM149.078 48.6527C149.505 48.6527 149.867 48.5533 150.162 48.3544C150.46 48.1522 150.685 47.8639 150.838 47.4893C150.994 47.1115 151.071 46.6591 151.071 46.1321C151.071 45.6184 150.995 45.166 150.843 44.7749C150.69 44.3838 150.467 44.0788 150.172 43.8601C149.877 43.638 149.512 43.527 149.078 43.527C148.63 43.527 148.258 43.643 147.959 43.875C147.661 44.1037 147.436 44.4152 147.283 44.8097C147.134 45.2041 147.059 45.6449 147.059 46.1321C147.059 46.6326 147.136 47.0717 147.288 47.4496C147.441 47.8274 147.666 48.1224 147.964 48.3345C148.266 48.5466 148.637 48.6527 149.078 48.6527ZM157.263 50.1541C156.511 50.1541 155.863 49.9934 155.319 49.6719C154.779 49.3471 154.361 48.8913 154.066 48.3047C153.775 47.7147 153.629 47.0237 153.629 46.2315C153.629 45.4493 153.775 44.7599 154.066 44.1634C154.361 43.5668 154.772 43.1011 155.299 42.7663C155.829 42.4316 156.449 42.2642 157.158 42.2642C157.589 42.2642 158.007 42.3355 158.411 42.478C158.816 42.6205 159.179 42.8442 159.5 43.1491C159.822 43.4541 160.075 43.8501 160.261 44.3374C160.446 44.8213 160.539 45.4096 160.539 46.1023V46.6293H154.469V45.5156H159.083C159.083 45.1245 159.003 44.7782 158.844 44.4766C158.685 44.1716 158.461 43.9313 158.173 43.7557C157.888 43.58 157.553 43.4922 157.168 43.4922C156.751 43.4922 156.386 43.5949 156.075 43.8004C155.766 44.0026 155.528 44.2678 155.359 44.5959C155.193 44.9207 155.11 45.2737 155.11 45.6548V46.5249C155.11 47.0353 155.2 47.4695 155.379 47.8274C155.561 48.1854 155.815 48.4588 156.139 48.6477C156.464 48.8333 156.844 48.9261 157.278 48.9261C157.56 48.9261 157.816 48.8864 158.048 48.8068C158.28 48.724 158.481 48.6013 158.65 48.4389C158.819 48.2765 158.948 48.076 159.038 47.8374L160.445 48.0909C160.332 48.5052 160.13 48.8681 159.838 49.1797C159.55 49.4879 159.187 49.7282 158.749 49.9006C158.315 50.0696 157.82 50.1541 157.263 50.1541ZM161.629 50V42.3636H163.065V43.5767H163.145C163.284 43.1657 163.529 42.8426 163.881 42.6072C164.235 42.3686 164.636 42.2493 165.084 42.2493C165.177 42.2493 165.286 42.2526 165.412 42.2592C165.541 42.2659 165.642 42.2741 165.715 42.2841V43.706C165.655 43.6894 165.549 43.6712 165.397 43.6513C165.245 43.6281 165.092 43.6165 164.94 43.6165C164.588 43.6165 164.275 43.6911 164 43.8402C163.728 43.986 163.513 44.1899 163.354 44.4517C163.195 44.7102 163.115 45.0052 163.115 45.3366V50H161.629ZM167.614 52.8636C167.392 52.8636 167.189 52.8454 167.007 52.8089C166.825 52.7758 166.689 52.7393 166.599 52.6996L166.957 51.4815C167.229 51.5545 167.471 51.5859 167.683 51.576C167.895 51.5661 168.083 51.4865 168.245 51.3374C168.411 51.1882 168.557 50.9446 168.682 50.6065L168.866 50.0994L166.072 42.3636H167.663L169.597 48.2898H169.677L171.611 42.3636H173.207L170.06 51.0192C169.914 51.4169 169.728 51.7533 169.503 52.0284C169.277 52.3068 169.009 52.5156 168.697 52.6548C168.386 52.794 168.025 52.8636 167.614 52.8636ZM175.499 48.608L175.425 49.1499C175.375 49.5476 175.29 49.9619 175.171 50.3928C175.055 50.8269 174.934 51.2296 174.808 51.6009C174.685 51.9721 174.584 52.267 174.505 52.4858H173.451C173.494 52.2803 173.554 52.0019 173.63 51.6506C173.706 51.3026 173.781 50.9131 173.853 50.4822C173.926 50.0514 173.981 49.6122 174.018 49.1648L174.067 48.608H175.499ZM31.9624 67.1442C31.2796 67.1442 30.6913 67.0199 30.1974 66.7713C29.7069 66.5227 29.3291 66.1847 29.0639 65.7571C28.7988 65.3262 28.6662 64.839 28.6662 64.2955C28.6662 63.8812 28.7524 63.5133 28.9247 63.1918C29.0971 62.867 29.3374 62.567 29.6456 62.2919C29.9538 62.0168 30.3101 61.7401 30.7145 61.4616L32.3551 60.3033C32.6335 60.121 32.8506 59.9287 33.0064 59.7266C33.1622 59.5211 33.2401 59.2675 33.2401 58.9659C33.2401 58.7273 33.1373 58.4986 32.9318 58.2798C32.7263 58.0611 32.4512 57.9517 32.1065 57.9517C31.8679 57.9517 31.6574 58.0097 31.4751 58.1257C31.2962 58.2417 31.1553 58.3909 31.0526 58.5732C30.9531 58.7521 30.9034 58.9411 30.9034 59.1399C30.9034 59.3719 30.9664 59.6056 31.0923 59.8409C31.2216 60.0762 31.3873 60.3198 31.5895 60.5717C31.7917 60.8203 32.0038 61.0788 32.2259 61.3473L36.9538 67H35.2734L31.3608 62.4013C31.0327 62.0135 30.7277 61.6489 30.446 61.3075C30.1643 60.9628 29.9356 60.6148 29.7599 60.2635C29.5876 59.9089 29.5014 59.526 29.5014 59.1151C29.5014 58.6477 29.6075 58.2334 29.8196 57.8722C30.035 57.5076 30.335 57.2225 30.7195 57.017C31.1039 56.8116 31.5547 56.7088 32.0717 56.7088C32.5954 56.7088 33.0445 56.8116 33.419 57.017C33.7969 57.2192 34.0869 57.4893 34.2891 57.8274C34.4946 58.1622 34.5973 58.5284 34.5973 58.9261C34.5973 59.41 34.4763 59.8376 34.2344 60.2088C33.9957 60.5767 33.666 60.9148 33.245 61.223L31.2017 62.7294C30.804 63.0211 30.5272 63.3094 30.3714 63.5945C30.219 63.8762 30.1428 64.0966 30.1428 64.2557C30.1428 64.5473 30.2173 64.8175 30.3665 65.0661C30.5189 65.3146 30.7311 65.5135 31.0028 65.6626C31.2779 65.8118 31.5994 65.8864 31.9673 65.8864C32.3452 65.8864 32.7131 65.8052 33.071 65.6428C33.4323 65.477 33.7588 65.2401 34.0504 64.9318C34.3454 64.6236 34.5791 64.254 34.7514 63.8232C34.9238 63.3923 35.0099 62.91 35.0099 62.3764H36.3523C36.3523 63.0327 36.2777 63.5878 36.1286 64.0419C35.9794 64.4927 35.7988 64.8606 35.5866 65.1456C35.3778 65.4273 35.1806 65.6477 34.995 65.8068C34.9354 65.8598 34.879 65.9129 34.826 65.9659C34.773 66.0189 34.7166 66.072 34.657 66.125C34.3123 66.473 33.8946 66.7299 33.4041 66.8956C32.9169 67.0613 32.4363 67.1442 31.9624 67.1442ZM43.9947 67.1541C43.2423 67.1541 42.5944 66.9934 42.0508 66.6719C41.5106 66.3471 41.0929 65.8913 40.798 65.3047C40.5063 64.7147 40.3605 64.0237 40.3605 63.2315C40.3605 62.4493 40.5063 61.7599 40.798 61.1634C41.0929 60.5668 41.5039 60.1011 42.0309 59.7663C42.5612 59.4316 43.181 59.2642 43.8903 59.2642C44.3212 59.2642 44.7388 59.3355 45.1431 59.478C45.5475 59.6205 45.9104 59.8442 46.2319 60.1491C46.5534 60.4541 46.807 60.8501 46.9926 61.3374C47.1782 61.8213 47.271 62.4096 47.271 63.1023V63.6293H41.2007V62.5156H45.8143C45.8143 62.1245 45.7348 61.7782 45.5757 61.4766C45.4166 61.1716 45.1929 60.9313 44.9045 60.7557C44.6195 60.58 44.2847 60.4922 43.9002 60.4922C43.4826 60.4922 43.118 60.5949 42.8065 60.8004C42.4983 61.0026 42.2596 61.2678 42.0906 61.5959C41.9249 61.9207 41.842 62.2737 41.842 62.6548V63.5249C41.842 64.0353 41.9315 64.4695 42.1105 64.8274C42.2928 65.1854 42.5463 65.4588 42.8711 65.6477C43.1959 65.8333 43.5754 65.9261 44.0096 65.9261C44.2913 65.9261 44.5482 65.8864 44.7802 65.8068C45.0122 65.724 45.2127 65.6013 45.3818 65.4389C45.5508 65.2765 45.6801 65.076 45.7696 64.8374L47.1765 65.0909C47.0638 65.5052 46.8617 65.8681 46.57 66.1797C46.2816 66.4879 45.9187 66.7282 45.4812 66.9006C45.047 67.0696 44.5515 67.1541 43.9947 67.1541ZM48.3603 67V59.3636H49.7872V60.6065H49.8816C50.0407 60.1856 50.3009 59.8575 50.6622 59.6222C51.0234 59.3835 51.4559 59.2642 51.9597 59.2642C52.4702 59.2642 52.8977 59.3835 53.2424 59.6222C53.5904 59.8608 53.8473 60.1889 54.013 60.6065H54.0925C54.2748 60.1989 54.5649 59.8741 54.9626 59.6321C55.3603 59.3868 55.8343 59.2642 56.3845 59.2642C57.0772 59.2642 57.6423 59.4813 58.0798 59.9155C58.5206 60.3497 58.741 61.0043 58.741 61.8793V67H57.2545V62.0185C57.2545 61.5014 57.1136 61.1269 56.8319 60.8949C56.5502 60.6629 56.2138 60.5469 55.8227 60.5469C55.3388 60.5469 54.9626 60.696 54.6941 60.9943C54.4256 61.2893 54.2914 61.6688 54.2914 62.1328V67H52.8099V61.924C52.8099 61.5097 52.6806 61.1766 52.4221 60.9247C52.1636 60.6728 51.8272 60.5469 51.4129 60.5469C51.1311 60.5469 50.871 60.6214 50.6323 60.7706C50.397 60.9164 50.2064 61.1203 50.0606 61.3821C49.9181 61.6439 49.8468 61.9472 49.8468 62.2919V67H48.3603ZM63.4645 67.1541C62.7122 67.1541 62.0642 66.9934 61.5207 66.6719C60.9804 66.3471 60.5628 65.8913 60.2678 65.3047C59.9761 64.7147 59.8303 64.0237 59.8303 63.2315C59.8303 62.4493 59.9761 61.7599 60.2678 61.1634C60.5628 60.5668 60.9738 60.1011 61.5008 59.7663C62.0311 59.4316 62.6509 59.2642 63.3601 59.2642C63.791 59.2642 64.2086 59.3355 64.613 59.478C65.0173 59.6205 65.3803 59.8442 65.7018 60.1491C66.0233 60.4541 66.2768 60.8501 66.4624 61.3374C66.648 61.8213 66.7408 62.4096 66.7408 63.1023V63.6293H60.6705V62.5156H65.2841C65.2841 62.1245 65.2046 61.7782 65.0455 61.4766C64.8864 61.1716 64.6627 60.9313 64.3743 60.7557C64.0893 60.58 63.7546 60.4922 63.3701 60.4922C62.9525 60.4922 62.5879 60.5949 62.2763 60.8004C61.9681 61.0026 61.7295 61.2678 61.5604 61.5959C61.3947 61.9207 61.3118 62.2737 61.3118 62.6548V63.5249C61.3118 64.0353 61.4013 64.4695 61.5803 64.8274C61.7626 65.1854 62.0162 65.4588 62.341 65.6477C62.6658 65.8333 63.0453 65.9261 63.4795 65.9261C63.7612 65.9261 64.018 65.8864 64.2501 65.8068C64.4821 65.724 64.6826 65.6013 64.8516 65.4389C65.0207 65.2765 65.1499 65.076 65.2394 64.8374L66.6464 65.0909C66.5337 65.5052 66.3315 65.8681 66.0398 66.1797C65.7515 66.4879 65.3886 66.7282 64.9511 66.9006C64.5169 67.0696 64.0214 67.1541 63.4645 67.1541ZM67.8301 67V59.3636H69.2669V60.5767H69.3465C69.4857 60.1657 69.731 59.8426 70.0823 59.6072C70.4369 59.3686 70.838 59.2493 71.2854 59.2493C71.3782 59.2493 71.4876 59.2526 71.6135 59.2592C71.7428 59.2659 71.8439 59.2741 71.9168 59.2841V60.706C71.8571 60.6894 71.7511 60.6712 71.5986 60.6513C71.4462 60.6281 71.2937 60.6165 71.1412 60.6165C70.7899 60.6165 70.4767 60.6911 70.2016 60.8402C69.9298 60.986 69.7144 61.1899 69.5553 61.4517C69.3962 61.7102 69.3167 62.0052 69.3167 62.3366V67H67.8301ZM75.5715 70.0227C74.9649 70.0227 74.4429 69.9432 74.0054 69.7841C73.5712 69.625 73.2166 69.4145 72.9415 69.1527C72.6664 68.8909 72.4609 68.6042 72.325 68.2926L73.6027 67.7656C73.6922 67.9115 73.8115 68.0656 73.9607 68.228C74.1131 68.3937 74.3186 68.5346 74.5771 68.6506C74.839 68.7666 75.1754 68.8246 75.5864 68.8246C76.1498 68.8246 76.6155 68.687 76.9834 68.4119C77.3513 68.1402 77.5352 67.706 77.5352 67.1094V65.608H77.4408C77.3513 65.7704 77.222 65.951 77.053 66.1499C76.8873 66.3487 76.6586 66.5211 76.3669 66.6669C76.0753 66.8127 75.6958 66.8857 75.2284 66.8857C74.6252 66.8857 74.0816 66.7448 73.5977 66.4631C73.1172 66.178 72.736 65.7588 72.4543 65.2053C72.1759 64.6484 72.0367 63.964 72.0367 63.152C72.0367 62.34 72.1742 61.6439 72.4493 61.0639C72.7277 60.4839 73.1089 60.0398 73.5928 59.7315C74.0767 59.42 74.6252 59.2642 75.2384 59.2642C75.7123 59.2642 76.0951 59.3438 76.3868 59.5028C76.6785 59.6586 76.9055 59.8409 77.0679 60.0497C77.2336 60.2585 77.3612 60.4425 77.4507 60.6016H77.5601V59.3636H79.0168V67.169C79.0168 67.8253 78.8643 68.3639 78.5594 68.7848C78.2545 69.2057 77.8418 69.5173 77.3215 69.7195C76.8044 69.9216 76.2211 70.0227 75.5715 70.0227ZM75.5565 65.6527C75.9841 65.6527 76.3454 65.5533 76.6404 65.3544C76.9387 65.1522 77.164 64.8639 77.3165 64.4893C77.4723 64.1115 77.5502 63.6591 77.5502 63.1321C77.5502 62.6184 77.4739 62.166 77.3215 61.7749C77.169 61.3838 76.9453 61.0788 76.6503 60.8601C76.3553 60.638 75.9907 60.527 75.5565 60.527C75.1091 60.527 74.7362 60.643 74.4379 60.875C74.1396 61.1037 73.9143 61.4152 73.7618 61.8097C73.6127 62.2041 73.5381 62.6449 73.5381 63.1321C73.5381 63.6326 73.6143 64.0717 73.7668 64.4496C73.9192 64.8274 74.1446 65.1224 74.4429 65.3345C74.7445 65.5466 75.1157 65.6527 75.5565 65.6527ZM83.7416 67.1541C82.9892 67.1541 82.3412 66.9934 81.7977 66.6719C81.2574 66.3471 80.8398 65.8913 80.5448 65.3047C80.2532 64.7147 80.1073 64.0237 80.1073 63.2315C80.1073 62.4493 80.2532 61.7599 80.5448 61.1634C80.8398 60.5668 81.2508 60.1011 81.7778 59.7663C82.3081 59.4316 82.9279 59.2642 83.6372 59.2642C84.068 59.2642 84.4857 59.3355 84.89 59.478C85.2944 59.6205 85.6573 59.8442 85.9788 60.1491C86.3003 60.4541 86.5538 60.8501 86.7394 61.3374C86.9251 61.8213 87.0179 62.4096 87.0179 63.1023V63.6293H80.9475V62.5156H85.5612C85.5612 62.1245 85.4816 61.7782 85.3225 61.4766C85.1635 61.1716 84.9397 60.9313 84.6514 60.7557C84.3663 60.58 84.0316 60.4922 83.6471 60.4922C83.2295 60.4922 82.8649 60.5949 82.5534 60.8004C82.2451 61.0026 82.0065 61.2678 81.8375 61.5959C81.6717 61.9207 81.5889 62.2737 81.5889 62.6548V63.5249C81.5889 64.0353 81.6784 64.4695 81.8573 64.8274C82.0396 65.1854 82.2932 65.4588 82.618 65.6477C82.9428 65.8333 83.3223 65.9261 83.7565 65.9261C84.0382 65.9261 84.2951 65.8864 84.5271 65.8068C84.7591 65.724 84.9596 65.6013 85.1287 65.4389C85.2977 65.2765 85.4269 65.076 85.5164 64.8374L86.9234 65.0909C86.8107 65.5052 86.6085 65.8681 86.3169 66.1797C86.0285 66.4879 85.6656 66.7282 85.2281 66.9006C84.7939 67.0696 84.2984 67.1541 83.7416 67.1541ZM89.5937 62.4659V67H88.1072V59.3636H89.534V60.6065H89.6285C89.8042 60.2022 90.0792 59.8774 90.4538 59.6321C90.8316 59.3868 91.3072 59.2642 91.8806 59.2642C92.401 59.2642 92.8567 59.3736 93.2478 59.5923C93.6389 59.8078 93.9422 60.1293 94.1576 60.5568C94.373 60.9844 94.4808 61.513 94.4808 62.1428V67H92.9943V62.3217C92.9943 61.7682 92.8501 61.3357 92.5617 61.0241C92.2734 60.7093 91.8773 60.5518 91.3735 60.5518C91.0288 60.5518 90.7222 60.6264 90.4538 60.7756C90.1886 60.9247 89.9782 61.1435 89.8224 61.4318C89.6699 61.7169 89.5937 62.0616 89.5937 62.4659ZM99.131 67.1541C98.3919 67.1541 97.7555 66.9867 97.2219 66.652C96.6916 66.3139 96.2839 65.8482 95.9989 65.255C95.7138 64.6617 95.5713 63.9822 95.5713 63.2166C95.5713 62.4411 95.7172 61.7566 96.0088 61.1634C96.3005 60.5668 96.7115 60.1011 97.2418 59.7663C97.7721 59.4316 98.3968 59.2642 99.1161 59.2642C99.6961 59.2642 100.213 59.3719 100.667 59.5874C101.121 59.7995 101.488 60.0978 101.766 60.4822C102.048 60.8667 102.215 61.3158 102.268 61.8295H100.821C100.742 61.4716 100.559 61.1634 100.274 60.9048C99.9927 60.6463 99.6149 60.517 99.1409 60.517C98.7266 60.517 98.3637 60.6264 98.0522 60.8452C97.7439 61.0606 97.5036 61.3688 97.3313 61.7699C97.1589 62.1676 97.0727 62.6383 97.0727 63.1818C97.0727 63.7386 97.1573 64.2192 97.3263 64.6236C97.4953 65.0279 97.734 65.3411 98.0422 65.5632C98.3538 65.7853 98.72 65.8963 99.1409 65.8963C99.4227 65.8963 99.6779 65.8449 99.9066 65.7422C100.139 65.6361 100.332 65.4853 100.488 65.2898C100.647 65.0942 100.758 64.8589 100.821 64.5838H102.268C102.215 65.0777 102.054 65.5185 101.786 65.9062C101.517 66.294 101.158 66.599 100.707 66.821C100.26 67.0431 99.7342 67.1541 99.131 67.1541ZM103.298 67V59.3636H104.784V67H103.298ZM104.048 58.1854C103.79 58.1854 103.568 58.0992 103.382 57.9268C103.2 57.7512 103.109 57.5424 103.109 57.3004C103.109 57.0552 103.2 56.8464 103.382 56.674C103.568 56.4983 103.79 56.4105 104.048 56.4105C104.307 56.4105 104.527 56.4983 104.71 56.674C104.895 56.8464 104.988 57.0552 104.988 57.3004C104.988 57.5424 104.895 57.7512 104.71 57.9268C104.527 58.0992 104.307 58.1854 104.048 58.1854ZM109.515 67.1541C108.763 67.1541 108.115 66.9934 107.571 66.6719C107.031 66.3471 106.613 65.8913 106.319 65.3047C106.027 64.7147 105.881 64.0237 105.881 63.2315C105.881 62.4493 106.027 61.7599 106.319 61.1634C106.613 60.5668 107.024 60.1011 107.551 59.7663C108.082 59.4316 108.702 59.2642 109.411 59.2642C109.842 59.2642 110.259 59.3355 110.664 59.478C111.068 59.6205 111.431 59.8442 111.752 60.1491C112.074 60.4541 112.328 60.8501 112.513 61.3374C112.699 61.8213 112.792 62.4096 112.792 63.1023V63.6293H106.721V62.5156H111.335C111.335 62.1245 111.255 61.7782 111.096 61.4766C110.937 61.1716 110.713 60.9313 110.425 60.7557C110.14 60.58 109.805 60.4922 109.421 60.4922C109.003 60.4922 108.639 60.5949 108.327 60.8004C108.019 61.0026 107.78 61.2678 107.611 61.5959C107.445 61.9207 107.363 62.2737 107.363 62.6548V63.5249C107.363 64.0353 107.452 64.4695 107.631 64.8274C107.813 65.1854 108.067 65.4588 108.392 65.6477C108.716 65.8333 109.096 65.9261 109.53 65.9261C109.812 65.9261 110.069 65.8864 110.301 65.8068C110.533 65.724 110.733 65.6013 110.902 65.4389C111.071 65.2765 111.201 65.076 111.29 64.8374L112.697 65.0909C112.584 65.5052 112.382 65.8681 112.091 66.1797C111.802 66.4879 111.439 66.7282 111.002 66.9006C110.568 67.0696 110.072 67.1541 109.515 67.1541ZM119.603 61.228L118.256 61.4666C118.2 61.2943 118.11 61.1302 117.987 60.9744C117.868 60.8187 117.706 60.6911 117.5 60.5916C117.295 60.4922 117.038 60.4425 116.73 60.4425C116.309 60.4425 115.957 60.5369 115.676 60.7259C115.394 60.9115 115.253 61.1518 115.253 61.4467C115.253 61.7019 115.347 61.9074 115.536 62.0632C115.725 62.219 116.03 62.3466 116.451 62.446L117.664 62.7244C118.367 62.8868 118.891 63.1371 119.235 63.4751C119.58 63.8132 119.752 64.2524 119.752 64.7926C119.752 65.25 119.62 65.6577 119.355 66.0156C119.093 66.3703 118.726 66.6487 118.256 66.8509C117.789 67.053 117.247 67.1541 116.63 67.1541C115.775 67.1541 115.077 66.9718 114.537 66.6072C113.997 66.2393 113.665 65.7173 113.543 65.0412L114.98 64.8224C115.069 65.197 115.253 65.4804 115.531 65.6726C115.81 65.8615 116.173 65.956 116.62 65.956C117.107 65.956 117.497 65.8549 117.789 65.6527C118.08 65.4472 118.226 65.197 118.226 64.902C118.226 64.6634 118.137 64.4628 117.958 64.3004C117.782 64.138 117.512 64.0154 117.147 63.9325L115.855 63.6491C115.142 63.4867 114.615 63.2282 114.274 62.8736C113.936 62.5189 113.767 62.0698 113.767 61.5263C113.767 61.0755 113.892 60.6811 114.144 60.343C114.396 60.005 114.744 59.7415 115.188 59.5526C115.633 59.3603 116.141 59.2642 116.715 59.2642C117.54 59.2642 118.19 59.4432 118.664 59.8011C119.137 60.1558 119.451 60.6314 119.603 61.228Z" fill="#3F4964"/>
</g>
<circle cx="393" cy="42" r="10" fill="white" fill-opacity="0.8"/>
<circle cx="393" cy="42" r="5" fill="#0400FF"/>
<defs>
<filter id="filter0_d_34_1772" x="0" y="0" width="211" height="108" filterUnits="userSpaceOnUse" color-interpolation-filters="sRGB">
<feFlood flood-opacity="0" result="BackgroundImageFix"/>
<feColorMatrix in="SourceAlpha" type="matrix" values="0 0 0 0 0 0 0 0 0 0 0 0 0 0 0 0 0 0 127 0" result="hardAlpha"/>
<feOffset dy="13"/>
<feGaussianBlur stdDeviation="5"/>
<feComposite in2="hardAlpha" operator="out"/>
<feColorMatrix type="matrix" values="0 0 0 0 0 0 0 0 0 0 0 0 0 0 0 0 0 0 0.05 0"/>
<feBlend mode="normal" in2="BackgroundImageFix" result="effect1_dropShadow_34_1772"/>
<feBlend mode="normal" in="SourceGraphic" in2="effect1_dropShadow_34_1772" result="shape"/>
</filter>
</defs>
</svg>
