<svg width="30" height="30" viewBox="0 0 30 30" fill="none" xmlns="http://www.w3.org/2000/svg">
<path d="M25.5183 9.72015L25.182 10.4915C24.936 11.0563 24.1549 11.0563 23.9088 10.4915L23.5726 9.72015C22.9733 8.34473 21.8939 7.24965 20.5469 6.65056L19.5109 6.18984C18.9509 5.94072 18.9509 5.12565 19.5109 4.87653L20.4889 4.44155C21.8705 3.82706 22.9694 2.69145 23.5583 1.26931L23.9036 0.435728C24.1443 -0.145243 24.9466 -0.145243 25.1872 0.435728L25.5325 1.26931C26.1215 2.69145 27.2204 3.82706 28.602 4.44155L29.5799 4.87653C30.14 5.12565 30.14 5.94072 29.5799 6.18984L28.544 6.65056C27.197 7.24965 26.1176 8.34473 25.5183 9.72015ZM8.86364 8.18182H6.13636V24.5455H8.86364V8.18182ZM2.72727 13.6364H0V19.0909H2.72727V13.6364ZM15 2.72727H12.2727V30H15V2.72727ZM21.1364 10.9091H18.4091V24.5455H21.1364V10.9091ZM27.2727 13.6364H24.5455V19.0909H27.2727V13.6364Z" fill="black"/>
</svg>
